<?xml version="1.0" standalone="no"?>
<!DOCTYPE svg PUBLIC "-//W3C//DTD SVG 20010904//EN"
 "http://www.w3.org/TR/2001/REC-SVG-20010904/DTD/svg10.dtd">
<svg version="1.0" xmlns="http://www.w3.org/2000/svg"
 width="1280.000000pt" height="1280.000000pt" viewBox="0 0 1280.000000 1280.000000"
 preserveAspectRatio="xMidYMid meet">
<metadata>
Created by potrace 1.14, written by Peter Selinger 2001-2017
</metadata>
<g transform="translate(0.000000,1280.000000) scale(0.100000,-0.100000)"
fill="#000000" stroke="none">
<path d="M6050 12793 c-1894 -106 -3632 -1037 -4775 -2558 -687 -915 -1110
-1988 -1239 -3145 -55 -491 -46 -1082 25 -1585 253 -1815 1289 -3447 2829
-4458 854 -560 1793 -897 2820 -1011 491 -55 1082 -46 1585 25 1815 253 3447
1289 4458 2829 560 854 897 1794 1011 2820 55 494 46 1080 -25 1585 -234 1679
-1136 3202 -2504 4230 -997 750 -2185 1185 -3450 1265 -144 9 -595 11 -735 3z
m870 -658 c1798 -168 3391 -1144 4355 -2670 914 -1446 1131 -3243 591 -4880
-416 -1258 -1268 -2344 -2401 -3060 -1446 -914 -3243 -1131 -4880 -591 -1258
416 -2344 1268 -3060 2401 -914 1446 -1131 3243 -591 4880 361 1090 1055 2062
1976 2764 918 701 1992 1098 3165 1171 191 12 644 4 845 -15z"/>
<path d="M4071 7238 l-1081 -1421 0 -229 0 -228 1075 0 1075 0 0 -450 0 -450
360 0 360 0 0 450 0 450 270 0 270 0 0 340 0 340 -270 0 -270 0 0 1310 0 1310
-354 0 -354 0 -1081 -1422z m1069 -403 l0 -795 -591 0 c-327 0 -589 4 -587 9
4 11 1171 1581 1175 1581 2 0 3 -358 3 -795z"/>
<path d="M6990 6560 l0 -2100 370 0 370 0 0 910 0 910 645 0 645 0 0 350 0
350 -645 0 -645 0 0 490 0 490 1005 0 1005 0 0 350 0 350 -1375 0 -1375 0 0
-2100z"/>
</g>
</svg>
