<svg width="512" height="512" viewBox="0 0 512 512" fill="none" xmlns="http://www.w3.org/2000/svg">
<g clip-path="url(#clip0_204_435)">
<path fill-rule="evenodd" clip-rule="evenodd" d="M86.5284 111.106C89.2311 109.189 92.9764 109.826 94.8937 112.528L109.694 133.391C112.527 132.499 115.543 132.018 118.671 132.018C135.165 132.018 148.536 145.389 148.536 161.883C148.536 170.396 144.974 178.077 139.259 183.517L156.132 207.3H376.838C379.411 207.3 381.698 208.941 382.522 211.378L376.838 213.3C382.522 211.378 382.523 211.381 382.524 211.385L382.54 211.431L382.578 211.546L382.632 211.711C382.656 211.784 382.683 211.868 382.714 211.964C382.829 212.323 382.994 212.844 383.198 213.514C383.605 214.855 384.172 216.799 384.824 219.259C386.127 224.177 387.775 231.175 389.179 239.567C391.977 256.291 393.852 278.834 389.888 301.553C385.914 324.331 376.004 347.588 354.998 365.095C334.681 382.029 304.669 393.013 261.371 393.708V620.544H311.543C314.857 620.544 317.543 623.23 317.543 626.544C317.543 629.857 314.857 632.544 311.543 632.544H205.192C201.878 632.544 199.192 629.857 199.192 626.544C199.192 623.23 201.878 620.544 205.192 620.544H249.371V393.708C206.072 393.014 176.059 382.029 155.742 365.095C134.737 347.588 124.828 324.331 120.854 301.553C116.891 278.834 118.766 256.29 121.564 239.567C122.968 231.175 124.617 224.177 125.92 219.259C126.571 216.799 127.138 214.855 127.546 213.514C127.75 212.844 127.914 212.323 128.03 211.964C128.087 211.784 128.133 211.644 128.165 211.546L128.204 211.431L128.215 211.396L128.219 211.385C128.22 211.381 128.221 211.378 133.905 213.3L128.221 211.378C129.046 208.941 131.332 207.3 133.905 207.3H141.419L129.066 189.889C125.829 191.091 122.327 191.748 118.671 191.748C102.177 191.748 88.8059 178.377 88.8059 161.883C88.8059 152.849 92.817 144.752 99.1554 139.276L85.1063 119.472C83.189 116.769 83.8257 113.024 86.5284 111.106ZM149.932 219.3H138.352C138.101 220.182 137.82 221.196 137.519 222.333C136.295 226.955 134.732 233.585 133.4 241.547C132.065 249.522 130.975 258.762 130.67 268.614C143.196 271.988 157.84 274.573 179.48 274.573C182.82 274.573 185.993 274.512 189.019 274.395L149.932 219.3ZM203.013 273.382L164.645 219.3H372.391C372.642 220.182 372.923 221.196 373.224 222.333C374.449 226.955 376.012 233.585 377.344 241.547C378.428 248.032 379.352 255.353 379.823 263.16C362.905 257.744 344.923 252.339 313.03 252.339C280.074 252.339 262.032 258.108 244.435 263.742L244.392 263.756C232.182 267.665 220.193 271.504 203.013 273.382ZM132.676 299.49C131.597 293.307 130.986 287.107 130.729 281.029C143.465 284.23 158.443 286.573 179.48 286.573C212.449 286.573 230.498 280.805 248.095 275.17L248.148 275.153C265.253 269.676 281.922 264.339 313.03 264.339C344.203 264.339 360.821 269.668 378.046 275.193C378.746 275.417 379.446 275.642 380.149 275.867C380.067 283.574 379.453 291.545 378.067 299.49C374.432 320.323 365.553 340.677 347.315 355.877C329.07 371.084 300.726 381.743 256.97 381.743C256.415 381.743 255.878 381.818 255.368 381.959C254.859 381.818 254.322 381.743 253.767 381.743C210.012 381.743 181.67 371.084 163.425 355.877C145.188 340.677 136.31 320.323 132.676 299.49ZM100.806 161.883C100.806 152.016 108.804 144.018 118.671 144.018C128.537 144.018 136.536 152.016 136.536 161.883C136.536 171.75 128.537 179.748 118.671 179.748C108.804 179.748 100.806 171.75 100.806 161.883Z" fill="#3B3F4F" fill-opacity="0.8"/>
</g>
<defs>
<clipPath id="clip0_204_435">
<rect width="512" height="512" fill="white"/>
</clipPath>
</defs>
</svg>
