<?xml version="1.0" standalone="no"?>
<!DOCTYPE svg PUBLIC "-//W3C//DTD SVG 20010904//EN"
 "http://www.w3.org/TR/2001/REC-SVG-20010904/DTD/svg10.dtd">
<svg version="1.0" xmlns="http://www.w3.org/2000/svg"
 width="1024.000000pt" height="1024.000000pt" viewBox="0 0 1024.000000 1024.000000"
 preserveAspectRatio="xMidYMid meet">
<metadata>
Created by potrace 1.14, written by Peter Selinger 2001-2017
</metadata>
<g transform="translate(0.000000,1024.000000) scale(0.100000,-0.100000)"
fill="#000000" stroke="none">
<path d="M1728 8947 c-44 -20 -145 -123 -158 -163 -14 -41 -7 -128 12 -165 13
-25 148 -220 158 -229 11 -10 80 -115 80 -123 0 -4 -15 -28 -34 -54 -78 -111
-112 -209 -130 -383 -6 -54 14 -185 40 -262 73 -220 291 -418 509 -463 22 -5
47 -10 55 -12 31 -7 187 -7 230 0 46 8 46 8 78 -38 32 -46 34 -65 6 -65 -8 0
-37 -22 -63 -48 -39 -39 -52 -62 -70 -120 -46 -153 -110 -427 -126 -542 -3
-25 -8 -52 -10 -60 -2 -8 -7 -40 -11 -70 -4 -30 -8 -66 -10 -80 -2 -14 -6 -54
-9 -90 -4 -36 -9 -78 -11 -95 -2 -16 -6 -136 -8 -265 -3 -213 7 -408 29 -545
75 -475 218 -821 471 -1140 35 -44 69 -85 76 -91 7 -6 27 -26 44 -45 85 -95
241 -223 364 -301 30 -19 69 -43 85 -54 191 -120 640 -285 873 -319 15 -2 63
-11 107 -19 44 -8 104 -17 134 -21 30 -4 61 -8 70 -10 9 -2 61 -6 116 -11 55
-4 114 -8 130 -10 17 -1 49 -3 71 -3 l42 -1 0 -1514 c0 -833 2 -1518 6 -1524
3 -6 97 -9 238 -8 l233 1 2 1518 c1 835 3 1520 5 1522 1 1 50 6 108 9 58 4
121 9 140 11 19 2 62 7 96 10 33 3 71 7 85 10 13 2 41 6 62 9 20 3 54 9 75 12
33 5 185 37 237 50 11 3 33 8 49 10 17 3 102 30 190 58 740 243 1245 752 1451
1461 28 96 72 291 80 353 3 20 7 57 10 82 4 25 8 59 10 75 22 171 22 558 0
750 -2 17 -6 58 -10 92 -3 34 -8 71 -10 83 -2 12 -9 54 -14 93 -30 214 -121
588 -162 669 -26 51 -64 87 -118 111 -46 20 -54 21 -2244 21 l-2199 1 -21 27
c-12 14 -68 91 -125 171 l-102 146 39 60 c101 158 135 364 89 551 -83 344
-392 570 -744 547 l-82 -6 -68 97 c-38 53 -76 106 -84 118 -104 151 -132 183
-188 210 -44 22 -136 27 -174 11z m744 -929 c47 -21 96 -72 119 -126 51 -116
-10 -259 -131 -310 -105 -44 -243 8 -297 111 -22 43 -32 125 -21 166 13 45 61
116 94 137 68 45 161 54 236 22z m483 -1512 c11 -13 60 -80 109 -150 49 -70
165 -234 257 -364 93 -130 174 -245 181 -256 7 -10 22 -30 32 -44 l20 -25
-155 7 c-85 4 -170 8 -189 10 -19 2 -68 7 -109 11 -41 3 -78 8 -81 10 -4 2
-29 7 -56 11 -27 3 -87 14 -134 24 l-85 17 1 59 c0 62 14 225 19 234 2 3 6 28
9 55 18 140 73 402 88 422 14 17 71 5 93 -21z m4396 25 c11 -2 55 -202 79
-356 6 -38 13 -80 15 -91 2 -12 7 -48 10 -79 9 -65 15 -62 -80 -35 -71 20
-288 70 -350 80 -33 5 -69 12 -80 14 -12 2 -48 7 -80 11 -33 4 -67 9 -76 10
-9 2 -54 6 -100 10 -46 3 -106 8 -134 10 -67 6 -528 6 -585 1 -25 -2 -81 -7
-125 -10 -44 -4 -91 -8 -105 -10 -14 -3 -52 -7 -84 -11 -169 -18 -409 -73
-661 -152 -320 -99 -497 -152 -524 -157 -14 -2 -57 -11 -96 -20 -38 -8 -83
-18 -100 -21 -120 -21 -159 -25 -164 -17 -3 4 -21 30 -40 57 -19 28 -62 88
-96 135 -98 135 -445 627 -445 631 0 3 3801 3 3821 0z m-846 -906 c77 -3 154
-8 170 -10 17 -3 53 -7 81 -10 157 -16 417 -73 622 -137 l103 -32 -6 -90 c-3
-50 -10 -125 -16 -166 -19 -141 -27 -181 -56 -290 -106 -400 -286 -678 -598
-928 -5 -4 -46 -31 -90 -60 -198 -131 -495 -246 -771 -301 -145 -29 -185 -35
-289 -47 -27 -3 -66 -7 -85 -10 -236 -27 -753 -22 -1020 10 -737 91 -1253 376
-1537 851 -66 111 -101 182 -144 297 -27 75 -72 231 -83 293 -3 17 -8 41 -11
55 -20 100 -31 225 -19 217 5 -3 25 -8 44 -11 19 -3 44 -7 55 -10 26 -5 159
-25 210 -30 248 -29 899 -29 1049 0 10 2 44 6 75 10 31 3 65 8 76 10 11 2 47
9 80 14 33 6 74 13 90 16 48 9 377 94 386 100 5 3 44 16 86 28 43 13 145 45
227 70 237 74 469 125 636 141 41 4 84 9 95 11 11 2 83 7 160 10 77 4 141 7
142 8 3 2 204 -3 338 -9z"/>
</g>
</svg>
