<svg width="412" height="128" viewBox="0 0 412 128" fill="none" xmlns="http://www.w3.org/2000/svg">
<g clip-path="url(#clip0_119_6868)">
<path fill-rule="evenodd" clip-rule="evenodd" d="M46.5985 63.9993H-0.147949V-2H412.105V63.9993H362.029C364.933 63.3315 367.155 61.7946 368.689 59.9997C370.266 58.2051 371.054 55.9929 371.054 53.3635C371.054 49.8575 369.706 47.1237 367.01 45.162C364.314 43.1586 360.56 42.1569 355.748 42.1569H340.503V63.9993H332.721V42.1569H328.739V63.9993H313.31C316.118 63.2469 318.349 61.9136 320.004 59.9997C321.663 58.0381 322.493 55.7634 322.493 53.1757C322.493 50.8383 321.829 48.7723 320.502 46.9776C319.174 45.1412 317.308 43.7221 314.902 42.7204C312.496 41.7187 309.758 41.2178 306.689 41.2178C303.411 41.2178 300.487 41.823 297.915 43.0334C295.384 44.2021 293.352 45.9133 291.817 48.1671C290.282 50.3792 289.349 53.0087 289.017 56.0555H290.697C291.236 52.0904 292.833 48.9601 295.488 46.6646C298.143 44.369 301.545 43.2212 305.693 43.2212C308.223 43.2212 310.463 43.6386 312.413 44.4733C314.362 45.3081 315.877 46.5185 316.955 48.1045C318.075 49.6488 318.635 51.4227 318.635 53.426C318.635 55.2208 318.158 56.8694 317.204 58.372C316.291 59.8745 314.962 61.0947 313.404 62.1154C311.494 63.3671 310.21 63.9404 307.175 63.9993H281.947L289.401 42.1569H287.597L280.109 63.9993H269.744L256.485 42.1569H251.944L265.236 63.9993H236.58C236.703 63.9993 236.825 63.9988 236.946 63.9982C243.292 63.9789 246.839 64.0419 249.343 62.1341C251.516 60.4718 253.193 57.9102 253.193 53.9868C253.193 50.0218 251.766 47.7059 248.821 45.4938C245.917 43.24 241.828 42.1569 236.643 42.1569H224.322V63.9993H214.324V42.1569H185.08L185.329 50.9218C185.37 51.5478 185.412 52.1948 185.453 52.8626C185.495 53.5304 185.515 54.1773 185.515 54.8034C185.515 58.0578 185.415 61.1233 185.215 63.9993H161.587V42.1569H148.769C143.501 42.1569 139.394 43.263 136.449 45.4751C133.545 47.6872 132.094 50.055 132.094 53.9783C132.094 56.8999 132.985 58.5527 134.769 60.5564C136.594 62.5179 139.125 63.2137 142.36 63.9649L142.337 63.9993H122.807V42.1569H93.9982L94.1848 49.4193C94.2979 55.0392 94.2567 59.8992 94.0608 63.9993H75.7077V42.1569H46.4631L46.7119 50.9218C46.7534 51.5478 46.7949 52.1948 46.8364 52.8626C46.8778 53.5304 46.8986 54.1773 46.8986 54.8034C46.8986 58.0578 46.7985 61.1233 46.5985 63.9993ZM71.7254 63.9993V43.8473H49.3252L49.0763 53.4887C48.9107 57.2978 48.6776 60.8013 48.377 63.9993H71.7254ZM118.824 63.9993H95.8236C96.1128 60.0408 96.3337 55.4102 96.4867 50.1079L96.798 43.9099H118.824V63.9993ZM157.605 63.9993V43.8473H148.831C144.808 43.8473 141.655 44.8072 139.373 46.7272C137.133 48.6054 136.014 50.5349 136.014 53.9157C136.014 57.3799 137.133 59.2623 139.373 61.1822C141.655 63.0603 144.808 63.9993 148.831 63.9993H157.605ZM210.342 63.9993V43.8473H187.942L187.693 53.4887C187.527 57.2978 187.294 60.8013 186.994 63.9993H210.342ZM236.521 63.9993H228.305V43.8473H236.58C240.562 43.8473 244.014 45.0772 246.111 46.8746C248.351 48.7945 249.211 50.5226 249.211 53.9868C249.211 54.0632 249.211 54.1391 249.21 54.2143C249.161 57.5086 248.041 59.6786 245.851 61.5963C243.72 63.4575 240.752 63.9684 236.946 63.9982L236.521 63.9993ZM305.378 63.9993H307.179C307.324 63.997 307.467 63.997 307.607 63.9993H305.378ZM355.748 63.9993C359.44 63.9993 362.417 62.6911 364.45 60.9798C366.483 59.2688 367.383 56.5981 367.383 53.5513C367.383 50.4627 366.346 48.0628 364.272 46.3515C362.239 44.6403 359.377 43.7847 355.685 43.7847H344.423V63.9993H355.748Z" fill="white"/>
<path d="M75.7081 63.9993V84.2283H81.059V96.5618H77.5746V85.9816H41.9212V96.5618H38.4367V84.2283H42.8545C44.2234 79.8878 45.2397 75.3798 45.9034 70.7056C46.2027 68.5977 46.4344 66.3627 46.5988 63.9993H48.3774C48.151 66.4082 47.8863 68.6432 47.5834 70.7056C46.9197 75.4638 45.9241 79.9922 44.5967 84.2907H71.7257V63.9993H75.7081ZM214.324 63.9993V84.2283H219.676V96.5618H216.192V85.9816H180.538V96.5618H177.054V84.2283H181.471C182.84 79.8878 183.857 75.3798 184.52 70.7056C184.82 68.5977 185.051 66.3627 185.215 63.9993H186.994C186.768 66.4082 186.503 68.6432 186.2 70.7056C185.537 75.4638 184.541 79.9922 183.213 84.2907H210.343V63.9993H214.324ZM313.311 63.9993L313.285 64.0063C316.064 64.5493 318.407 65.822 320.315 67.8255C322.265 69.829 323.24 72.1036 323.24 74.6495C323.24 77.1955 322.555 79.3867 321.187 81.2234C319.818 83.0601 317.868 84.4791 315.338 85.4806C312.849 86.4406 309.924 86.9206 306.564 86.9206C303.163 86.9206 300.114 86.3152 297.418 85.105C294.721 83.8527 292.543 82.079 290.884 79.7834C289.225 77.4877 288.209 74.8164 287.836 71.7694H289.516C290.096 75.8184 291.818 79.0321 294.68 81.4112C297.584 83.7483 301.255 84.9172 305.693 84.9172C309.841 84.9172 313.118 83.9781 315.524 82.1C317.972 80.2214 319.196 77.6965 319.196 74.5241C319.196 72.6881 318.698 71.0392 317.702 69.5787C316.706 68.0757 315.93 67.314 314.302 66.1964C312.832 65.1868 310.735 64.0489 307.607 63.9993H313.311ZM281.947 63.9993L277.33 77.5297C276.252 80.7434 274.904 83.1225 273.286 84.6669C271.668 86.1694 269.553 86.9206 266.939 86.9206C265.28 86.9206 263.725 86.503 262.273 85.6684C260.862 84.8337 259.722 83.6235 258.85 82.037C258.021 80.4512 257.606 78.5941 257.606 76.4652V74.7749H259.348V76.4652C259.348 78.9697 260.012 81.0146 261.339 82.6005C262.708 84.1869 264.451 84.9796 266.566 84.9796C268.516 84.9796 270.05 84.4581 271.171 83.4147C272.291 82.3293 272.851 80.9312 272.851 79.2199C272.851 77.4667 272.27 75.6096 271.108 73.6481L265.237 63.9993H269.744L273.473 70.1422C274.053 71.0602 274.551 72.0616 274.966 73.1471C275.423 74.1905 275.712 75.2964 275.837 76.4652L280.11 63.9993H281.947ZM95.8239 63.9993C95.7219 65.4009 95.6112 66.7179 95.4918 67.9509C95.0356 72.6251 94.413 76.4442 93.6252 79.4077C92.9615 81.7454 91.9865 83.5605 90.7008 84.8547C89.415 86.1064 87.8801 86.7328 86.0964 86.7328C85.2252 86.7328 84.5197 86.6698 83.9806 86.545C83.4415 86.461 82.8815 86.2732 82.3007 85.9816V81.9746H82.4253C83.0885 82.2249 83.6693 82.3917 84.1673 82.4757C84.6652 82.5591 85.3081 82.6005 86.0964 82.6005C87.2575 82.6005 88.2742 82.3503 89.1449 81.8492C90.0573 81.3482 90.8045 80.597 91.3854 79.5955C91.9662 78.5521 92.3807 77.2584 92.6293 75.714C93.2931 73.0013 93.7493 69.4947 93.9985 65.1962C94.0211 64.8048 94.042 64.4053 94.0611 63.9993H95.8239ZM122.807 63.9993V85.9816H118.825V63.9993H122.807ZM332.722 63.9993V85.9816H328.739V63.9993H332.722ZM224.323 63.9993H228.184L228.305 85.9816H224.323V63.9993ZM340.503 63.9993H362.029C365.472 64.5423 368.13 65.6972 369.996 67.5753C371.905 69.4533 372.859 71.8114 372.859 74.6495C372.859 76.9872 372.237 79.0111 370.992 80.7224C369.748 82.3917 367.964 83.6859 365.641 84.6039C363.318 85.522 360.518 85.9816 357.241 85.9816H340.503V63.9993ZM161.587 63.9993V85.9816H157.605V63.9993H146.264L132.405 85.9816H127.8L142.338 63.9993H161.587ZM356.93 84.3537C360.747 84.3537 363.691 83.4981 365.765 81.7868C367.839 80.0756 368.877 77.6755 368.877 74.5871C368.877 71.4982 367.819 68.9821 365.703 67.2708C363.588 65.5595 360.663 64.004 356.93 64.004H344.424V84.3537H356.93Z" fill="white"/>
</g>
<defs>
<clipPath id="clip0_119_6868">
<rect width="412" height="128" fill="white"/>
</clipPath>
</defs>
</svg>
