<?xml version="1.0" encoding="utf-8"?>
<svg xmlns="http://www.w3.org/2000/svg">

    <!-- Chevrons -->

    <symbol id="icon-chevron-left" viewBox="0 0 24 24">
        <path fill-rule="evenodd" clip-rule="evenodd" d="M15.7071 19.7071C15.3166 20.0976 14.6834 20.0976 14.2929 19.7071L8 13.4142C7.21895 12.6332 7.21895 11.3668 8 10.5858L14.2929 4.29289C14.6834 3.90237 15.3166 3.90237 15.7071 4.29289C16.0976 4.68342 16.0976 5.31658 15.7071 5.70711L9.41421 12L15.7071 18.2929C16.0976 18.6834 16.0976 19.3166 15.7071 19.7071Z" fill="currentColor"/>
    </symbol>

    <symbol id="icon-chevron-right" viewBox="0 0 24 24">
        <path fill-rule="evenodd" clip-rule="evenodd" d="M8.29289 4.29289C8.68342 3.90237 9.31658 3.90237 9.70711 4.29289L16 10.5858C16.7811 11.3668 16.781 12.6332 16 13.4142L9.70711 19.7071C9.31658 20.0976 8.68342 20.0976 8.29289 19.7071C7.90237 19.3166 7.90237 18.6834 8.29289 18.2929L14.5858 12L8.29289 5.70711C7.90237 5.31658 7.90237 4.68342 8.29289 4.29289Z" fill="currentColor"/>
    </symbol>


    <!-- Socials -->

    <symbol id="icon-soc-instagram" viewBox="0 0 24 24">
        <path d="M11.999 7.377C9.445 7.377 7.376 9.447 7.376 12C7.376 14.554 9.445 16.624 11.999 16.624C14.551 16.624 16.622 14.554 16.622 12C16.622 9.447 14.551 7.377 11.999 7.377ZM11.999 15.004C10.34 15.004 8.995 13.659 8.995 12.001C8.995 10.342 10.34 8.998 11.999 8.998C13.658 8.998 15.001 10.342 15.001 12.001C15.001 13.659 13.658 15.004 11.999 15.004Z" fill="currentColor"/>
        <path d="M16.806 8.285C17.4014 8.285 17.884 7.80237 17.884 7.207C17.884 6.61164 17.4014 6.129 16.806 6.129C16.2106 6.129 15.728 6.61164 15.728 7.207C15.728 7.80237 16.2106 8.285 16.806 8.285Z" fill="currentColor"/>
        <path d="M20.533 6.111C20.064 4.902 19.109 3.946 17.9 3.479C17.201 3.216 16.462 3.075 15.714 3.059C14.751 3.017 14.446 3.005 12.004 3.005C9.562 3.005 9.249 3.005 8.294 3.059C7.548 3.074 6.809 3.215 6.11 3.479C4.9 3.946 3.945 4.902 3.477 6.111C3.214 6.811 3.073 7.549 3.058 8.297C3.015 9.259 3.002 9.564 3.002 12.007C3.002 14.449 3.002 14.76 3.058 15.717C3.073 16.465 3.214 17.203 3.477 17.904C3.946 19.112 4.901 20.068 6.111 20.536C6.807 20.808 7.546 20.962 8.296 20.986C9.259 21.028 9.564 21.041 12.006 21.041C14.448 21.041 14.761 21.041 15.716 20.986C16.463 20.971 17.202 20.829 17.902 20.567C19.111 20.098 20.066 19.143 20.535 17.934C20.798 17.234 20.939 16.496 20.954 15.748C20.997 14.786 21.01 14.481 21.01 12.038C21.01 9.595 21.01 9.285 20.954 8.328C20.941 7.57 20.801 6.819 20.533 6.111ZM19.315 15.643C19.308 16.219 19.204 16.79 19.004 17.331C18.699 18.118 18.078 18.74 17.292 19.042C16.757 19.241 16.193 19.345 15.622 19.353C14.672 19.397 14.404 19.408 11.968 19.408C9.53 19.408 9.281 19.408 8.313 19.353C7.744 19.346 7.178 19.241 6.644 19.042C5.855 18.741 5.23 18.119 4.925 17.331C4.729 16.797 4.623 16.232 4.614 15.662C4.571 14.712 4.561 14.444 4.561 12.008C4.561 9.57101 4.561 9.322 4.614 8.353C4.621 7.777 4.725 7.207 4.925 6.666C5.23 5.877 5.855 5.256 6.644 4.954C7.178 4.756 7.744 4.651 8.313 4.643C9.264 4.6 9.531 4.588 11.968 4.588C14.405 4.588 14.655 4.588 15.622 4.643C16.193 4.65 16.757 4.755 17.292 4.954C18.078 5.257 18.699 5.879 19.004 6.666C19.2 7.2 19.306 7.765 19.315 8.335C19.358 9.286 19.369 9.553 19.369 11.99C19.369 14.426 19.369 14.688 19.326 15.644H19.315V15.643Z" fill="currentColor"/>
    </symbol>

    <symbol id="icon-soc-x" viewBox="0 0 24 24">
        <path d="M17.7512 3H20.818L14.1179 10.6577L22 21.0782H15.8284L10.9946 14.7582L5.46359 21.0782H2.39494L9.5613 12.8874L2 3H8.32828L12.6976 8.77667L17.7512 3ZM16.6748 19.2425H18.3742L7.4049 4.73921H5.58133L16.6748 19.2425Z" fill="currentColor"/>
    </symbol>

    <symbol id="icon-soc-telegram" viewBox="0 0 24 24">
        <path d="M3.16484 10.968L14.4825 6.21897C15.5997 5.72428 19.3884 4.14125 19.3884 4.14125C19.3884 4.14125 21.1371 3.44868 20.9914 5.13064C20.9428 5.82322 20.5542 8.24722 20.1656 10.8691L18.9513 18.6358C18.9513 18.6358 18.8541 19.7736 18.0284 19.9715C17.2026 20.1694 15.8426 19.2789 15.5997 19.0811C15.4054 18.9326 11.9567 16.7065 10.6938 15.6182C10.3537 15.3214 9.96515 14.7277 10.7423 14.0352C12.491 12.4027 14.5797 10.3744 15.8426 9.08821C16.4255 8.49457 17.0083 7.10942 14.5797 8.79139L7.73077 13.491C7.73077 13.491 6.95359 13.9857 5.49638 13.5405C4.03917 13.0952 2.33909 12.5016 2.33909 12.5016C2.33909 12.5016 1.17332 11.7596 3.16484 10.968V10.968Z" fill="currentColor"/>
    </symbol>

    <symbol id="icon-soc-facebook" viewBox="0 0 24 24">
        <path d="M12.001 2.00195C6.479 2.00195 2.002 6.47895 2.002 12.001C2.002 16.991 5.658 21.127 10.439 21.88V14.892H7.899V12.001H10.439V9.79795C10.439 7.28995 11.932 5.90695 14.215 5.90695C15.309 5.90695 16.455 6.10195 16.455 6.10195V8.56095H15.191C13.951 8.56095 13.563 9.33295 13.563 10.124V11.999H16.334L15.891 14.89H13.563V21.878C18.344 21.129 22 16.992 22 12.001C22 6.47895 17.523 2.00195 12.001 2.00195Z" fill="currentColor"/>
    </symbol>

    <symbol id="icon-soc-tripadvisor" viewBox="0 0 24 24">
        <path d="M21.2019 9.07758L23 7.13862H19.0126C17.0164 5.78712 14.6056 5 11.9983 5C9.39439 5 6.99032 5.78881 4.99742 7.13862H1L2.79809 9.07758C1.69595 10.0743 1.00501 11.5099 1.00501 13.104C1.00501 16.1122 3.46577 18.5512 6.50088 18.5512C7.94269 18.5512 9.25627 18 10.2369 17.099L11.9984 19L13.7598 17.1007C14.7405 18.0017 16.0524 18.5512 17.4942 18.5512C20.5293 18.5512 22.9934 16.1122 22.9934 13.104C22.995 11.5083 22.3041 10.0726 21.2019 9.07758ZM6.50251 16.7904C4.44799 16.7904 2.78314 15.1403 2.78314 13.104C2.78314 11.0677 4.44804 9.4175 6.50251 9.4175C8.55698 9.4175 10.2219 11.0677 10.2219 13.104C10.2219 15.1403 8.55698 16.7904 6.50251 16.7904ZM12 12.9967C12 10.571 10.2202 8.48847 7.87105 7.59902C9.14136 7.07259 10.5349 6.78052 11.9983 6.78052C13.4618 6.78052 14.8569 7.07259 16.1273 7.59902C13.7798 8.49013 12 10.571 12 12.9967ZM17.4959 16.7904C15.4414 16.7904 13.7765 15.1403 13.7765 13.104C13.7765 11.0677 15.4414 9.4175 17.4959 9.4175C19.5504 9.4175 21.2152 11.0677 21.2152 13.104C21.2152 15.1403 19.5503 16.7904 17.4959 16.7904ZM17.4959 11.17C16.4187 11.17 15.5462 12.0347 15.5462 13.1023C15.5462 14.17 16.4187 15.0347 17.4959 15.0347C18.573 15.0347 19.4455 14.17 19.4455 13.1023C19.4454 12.0363 18.573 11.17 17.4959 11.17ZM8.4521 13.104C8.4521 14.1716 7.57968 15.0363 6.50251 15.0363C5.42534 15.0363 4.55292 14.1716 4.55292 13.104C4.55292 12.0363 5.42534 11.1716 6.50251 11.1716C7.57968 11.17 8.4521 12.0363 8.4521 13.104Z" fill="currentColor"/>
    </symbol>


    <!-- 24px main set -->

    <symbol id="icon-cup" viewBox="0 0 24 24">
        <path fill-rule="evenodd" clip-rule="evenodd" d="M7 1C7 0.447715 6.55228 0 6 0C5.44772 0 5 0.447715 5 1V4C5 4.55228 5.44772 5 6 5C6.55228 5 7 4.55228 7 4V1ZM2 7C1.44772 7 1 7.44772 1 8V17C1 18.3261 1.52678 19.5979 2.46447 20.5355C3.40215 21.4732 4.67392 22 6 22H14C15.3261 22 16.5979 21.4732 17.5355 20.5355C18.4732 19.5979 19 18.3261 19 17C20.3261 17 21.5979 16.4732 22.5355 15.5355C23.4732 14.5979 24 13.3261 24 12C24 10.6739 23.4732 9.40215 22.5355 8.46447C21.5979 7.52678 20.3261 7 19 7H18H2ZM21.1213 14.1213C20.5587 14.6839 19.7956 15 19 15V9C19.7956 9 20.5587 9.31607 21.1213 9.87868C21.6839 10.4413 22 11.2044 22 12C22 12.7956 21.6839 13.5587 21.1213 14.1213ZM17 16V9H3V17C3 17.7957 3.31607 18.5587 3.87868 19.1213C4.44129 19.6839 5.20435 20 6 20H14C14.7956 20 15.5587 19.6839 16.1213 19.1213C16.6839 18.5587 17 17.7956 17 17V16ZM10 0C10.5523 0 11 0.447715 11 1V4C11 4.55228 10.5523 5 10 5C9.44771 5 9 4.55228 9 4V1C9 0.447715 9.44771 0 10 0ZM15 1C15 0.447715 14.5523 0 14 0C13.4477 0 13 0.447715 13 1V4C13 4.55228 13.4477 5 14 5C14.5523 5 15 4.55228 15 4V1Z" fill="currentColor"/>
    </symbol>

    <symbol id="icon-book" viewBox="0 0 24 24">
        <path fill-rule="evenodd" clip-rule="evenodd" d="M1 3C1 2.44772 1.44772 2 2 2H8C9.32608 2 10.5979 2.52678 11.5355 3.46447C11.7038 3.63275 11.8589 3.81178 12 3.99997C12.1411 3.81178 12.2962 3.63275 12.4645 3.46447C13.4021 2.52678 14.6739 2 16 2H22C22.5523 2 23 2.44772 23 3V18C23 18.5523 22.5523 19 22 19H15C14.4696 19 13.9609 19.2107 13.5858 19.5858C13.2107 19.9609 13 20.4696 13 21C13 21.5523 12.5523 22 12 22C11.4477 22 11 21.5523 11 21C11 20.4696 10.7893 19.9609 10.4142 19.5858C10.0391 19.2107 9.53043 19 9 19H2C1.44772 19 1 18.5523 1 18V3ZM11 17.5359C10.3971 17.1878 9.70823 17 9 17H3V4H8C8.79565 4 9.55871 4.31607 10.1213 4.87868C10.6839 5.44129 11 6.20435 11 7V17.5359ZM13 17.5359C13.6029 17.1878 14.2918 17 15 17H21V4H16C15.2044 4 14.4413 4.31607 13.8787 4.87868C13.3161 5.44129 13 6.20435 13 7V17.5359Z" fill="currentColor"/>
    </symbol>

    <symbol id="icon-message" viewBox="0 0 24 24">
        <path fill-rule="evenodd" clip-rule="evenodd" d="M12.5 4C8.35786 4 4.99999 7.35786 4.99999 11.5C4.99999 12.779 5.31932 13.9804 5.88176 15.0319L6.11658 15.4708L4.04576 19.9551L8.53268 17.8856L8.97125 18.1199C10.022 18.6813 11.2223 19 12.5 19C16.6421 19 20 15.6421 20 11.5C20 7.35786 16.6421 4 12.5 4ZM2.99999 11.5C2.99999 6.25329 7.25329 2 12.5 2C17.7467 2 22 6.25329 22 11.5C22 16.7467 17.7467 21 12.5 21C11.0659 21 9.70391 20.6816 8.4828 20.1111L4.88344 21.7713C3.195 22.5501 1.45047 20.8048 2.23002 19.1167L3.89058 15.5207C3.31901 14.2987 2.99999 12.9354 2.99999 11.5Z" fill="currentColor"/>
    </symbol>

    <symbol id="icon-case" viewBox="0 0 24 24">
        <path fill-rule="evenodd" clip-rule="evenodd" d="M7.87868 2.87868C8.44129 2.31607 9.20435 2 10 2H14C14.7956 2 15.5587 2.31607 16.1213 2.87868C16.6839 3.44129 17 4.20435 17 5V6H20C21.6569 6 23 7.34315 23 9V19C23 20.6569 21.6569 22 20 22H4C2.34315 22 1 20.6569 1 19V9C1 7.34315 2.34315 6 4 6H7V5C7 4.20435 7.31607 3.44129 7.87868 2.87868ZM7 8H4C3.44772 8 3 8.44772 3 9V19C3 19.5523 3.44772 20 4 20H7V8ZM9 20V8H15V20H9ZM17 20H20C20.5523 20 21 19.5523 21 19V9C21 8.44772 20.5523 8 20 8H17V20ZM15 6H9V5C9 4.73478 9.10536 4.48043 9.29289 4.29289C9.48043 4.10536 9.73478 4 10 4H14C14.2652 4 14.5196 4.10536 14.7071 4.29289C14.8946 4.48043 15 4.73478 15 5V6Z" fill="currentColor"/>
    </symbol>

    <symbol id="icon-star" viewBox="0 0 24 24">
        <path fill-rule="evenodd" clip-rule="evenodd" d="M12 1C12.3806 1 12.7282 1.21607 12.8967 1.55738L15.7543 7.34647L22.1446 8.28051C22.5212 8.33555 22.8339 8.59956 22.9512 8.96157C23.0686 9.32358 22.9703 9.72083 22.6977 9.98636L18.0745 14.4894L19.1656 20.851C19.23 21.2261 19.0757 21.6053 18.7677 21.8291C18.4598 22.0528 18.0515 22.0823 17.7145 21.9051L12 18.8998L6.28545 21.9051C5.94853 22.0823 5.54024 22.0528 5.23226 21.8291C4.92429 21.6053 4.77004 21.2261 4.83439 20.851L5.92548 14.4894L1.30227 9.98636C1.02965 9.72083 0.931375 9.32358 1.04875 8.96157C1.16613 8.59956 1.47881 8.33555 1.85537 8.28051L8.24574 7.34647L11.1033 1.55738C11.2718 1.21607 11.6194 1 12 1ZM12 4.25925L9.80671 8.70262C9.66117 8.99747 9.37998 9.20193 9.05463 9.24949L4.14841 9.9666L7.69773 13.4236C7.93361 13.6534 8.04127 13.9845 7.98561 14.309L7.14818 19.1917L11.5345 16.8849C11.8259 16.7317 12.1741 16.7317 12.4655 16.8849L16.8518 19.1917L16.0144 14.309C15.9587 13.9845 16.0664 13.6534 16.3023 13.4236L19.8516 9.9666L14.9454 9.24949C14.62 9.20193 14.3388 8.99747 14.1933 8.70262L12 4.25925Z" fill="currentColor"/>
    </symbol>

    <symbol id="icon-thumbs-up" viewBox="0 0 24 24">
        <path fill-rule="evenodd" clip-rule="evenodd" d="M10.0862 1.59386C10.2467 1.23273 10.6048 1 11 1C12.0609 1 13.0783 1.42143 13.8284 2.17157C14.5786 2.92172 15 3.93913 15 5V8H19.6549C20.0876 7.996 20.5162 8.08567 20.911 8.26289C21.3078 8.44096 21.6611 8.70317 21.9465 9.03134C22.2318 9.35951 22.4424 9.7458 22.5637 10.1634C22.6849 10.5811 22.7139 11.0201 22.6487 11.4501L21.2687 20.4499C21.2687 20.4502 21.2687 20.4497 21.2687 20.4499C21.1601 21.165 20.7966 21.8175 20.2456 22.2859C19.6958 22.7532 18.9961 23.0067 18.2748 23H4C3.20435 23 2.44129 22.6839 1.87868 22.1213C1.31607 21.5587 1 20.7957 1 20V13C1 12.2044 1.31607 11.4413 1.87868 10.8787C2.44129 10.3161 3.20435 10 4 10H6.35013L10.0862 1.59386ZM6 12H4C3.73478 12 3.48043 12.1054 3.29289 12.2929C3.10536 12.4804 3 12.7348 3 13V20C3 20.2652 3.10536 20.5196 3.29289 20.7071C3.48043 20.8946 3.73478 21 4 21H6V12ZM8 21H18.2913C18.5325 21.0027 18.7665 20.9183 18.9503 20.7621C19.134 20.6059 19.2551 20.3885 19.2913 20.1501L20.6713 11.1499C20.6713 11.1498 20.6713 11.1501 20.6713 11.1499C20.693 11.0067 20.6834 10.8601 20.643 10.7211C20.6026 10.5818 20.5324 10.4531 20.4373 10.3437C20.3421 10.2343 20.2244 10.1469 20.0921 10.0875C19.9599 10.0282 19.8163 9.99829 19.6713 9.99994L19.66 10.0001L14 10C13.4477 10 13 9.55228 13 9V5C13 4.46957 12.7893 3.96086 12.4142 3.58579C12.1864 3.35794 11.9092 3.19075 11.6078 3.0946L8 11.2122V21Z" fill="currentColor"/>
    </symbol>

    <symbol id="icon-location" viewBox="0 0 24 24">
        <path fill-rule="evenodd" clip-rule="evenodd" d="M12 2C9.87827 2 7.84344 2.84285 6.34315 4.34315C4.84285 5.84344 4 7.87827 4 10C4 13.0981 6.01574 16.1042 8.22595 18.4373C9.31061 19.5822 10.3987 20.5195 11.2167 21.1708C11.5211 21.4133 11.787 21.6152 12 21.7726C12.213 21.6152 12.4789 21.4133 12.7833 21.1708C13.6013 20.5195 14.6894 19.5822 15.774 18.4373C17.9843 16.1042 20 13.0981 20 10C20 7.87827 19.1571 5.84344 17.6569 4.34315C16.1566 2.84285 14.1217 2 12 2ZM12 23C11.4453 23.8321 11.445 23.8319 11.4448 23.8317L11.4419 23.8298L11.4352 23.8253L11.4123 23.8098C11.3928 23.7966 11.3651 23.7776 11.3296 23.753C11.2585 23.7038 11.1565 23.6321 11.0278 23.5392C10.7705 23.3534 10.4064 23.0822 9.97082 22.7354C9.10133 22.043 7.93939 21.0428 6.77405 19.8127C4.48426 17.3958 2 13.9019 2 10C2 7.34784 3.05357 4.8043 4.92893 2.92893C6.8043 1.05357 9.34784 0 12 0C14.6522 0 17.1957 1.05357 19.0711 2.92893C20.9464 4.8043 22 7.34784 22 10C22 13.9019 19.5157 17.3958 17.226 19.8127C16.0606 21.0428 14.8987 22.043 14.0292 22.7354C13.5936 23.0822 13.2295 23.3534 12.9722 23.5392C12.8435 23.6321 12.7415 23.7038 12.6704 23.753C12.6349 23.7776 12.6072 23.7966 12.5877 23.8098L12.5648 23.8253L12.5581 23.8298L12.556 23.8312C12.5557 23.8314 12.5547 23.8321 12 23ZM12 23L12.5547 23.8321C12.2188 24.056 11.7807 24.0556 11.4448 23.8317L12 23ZM12 8C10.8954 8 10 8.89543 10 10C10 11.1046 10.8954 12 12 12C13.1046 12 14 11.1046 14 10C14 8.89543 13.1046 8 12 8ZM8 10C8 7.79086 9.79086 6 12 6C14.2091 6 16 7.79086 16 10C16 12.2091 14.2091 14 12 14C9.79086 14 8 12.2091 8 10Z" fill="currentColor"/>
    </symbol>

    <symbol id="icon-share" viewBox="0 0 24 24">
        <path fill-rule="evenodd" clip-rule="evenodd" d="M18 3C16.8954 3 16 3.89543 16 5C16 5.34745 16.0886 5.67421 16.2444 5.95891C16.2545 5.97424 16.2643 5.98993 16.2737 6.00598C16.283 6.02191 16.2918 6.038 16.3001 6.05421C16.6529 6.62199 17.2823 7 18 7C19.1046 7 20 6.10457 20 5C20 3.89543 19.1046 3 18 3ZM15.1581 7.81485C15.883 8.54668 16.8885 9 18 9C20.2091 9 22 7.20914 22 5C22 2.79086 20.2091 1 18 1C15.7909 1 14 2.79086 14 5C14 5.37701 14.0522 5.74185 14.1497 6.08767L8.84193 9.18514C8.11703 8.45331 7.11145 8 6 8C3.79086 8 2 9.79086 2 12C2 14.2091 3.79086 16 6 16C7.11166 16 8.1174 15.5465 8.84232 14.8145L14.1509 17.9079C14.0526 18.255 14 18.6214 14 19C14 21.2091 15.7909 23 18 23C20.2091 23 22 21.2091 22 19C22 16.7909 20.2091 15 18 15C16.8902 15 15.886 15.452 15.1613 16.1819L9.85049 13.0872C9.94789 12.7415 10 12.3768 10 12C10 11.623 9.94784 11.2581 9.85034 10.9123L15.1581 7.81485ZM7.69948 10.9451C7.70791 10.9615 7.71684 10.9779 7.72628 10.994C7.73579 11.0103 7.74568 11.0263 7.75595 11.0418C7.91155 11.3263 8 11.6528 8 12C8 12.3472 7.91153 12.6737 7.7559 12.9583C7.74553 12.974 7.73555 12.9901 7.72596 13.0065C7.71666 13.0225 7.70785 13.0386 7.69953 13.0548C7.3466 13.6223 6.71741 14 6 14C4.89543 14 4 13.1046 4 12C4 10.8954 4.89543 10 6 10C6.71737 10 7.34653 10.3777 7.69948 10.9451ZM16.2153 18.0963C16.24 18.0639 16.2629 18.0296 16.284 17.9935C16.3041 17.9589 16.322 17.9235 16.3376 17.8877C16.6965 17.3524 17.3071 17 18 17C19.1046 17 20 17.8954 20 19C20 20.1046 19.1046 21 18 21C16.8954 21 16 20.1046 16 19C16 18.6748 16.0776 18.3678 16.2153 18.0963Z" fill="currentColor"/>
    </symbol>


    <!-- 48px bar set -->

    <symbol id="icon-bar-cocktails" viewBox="0 0 48 48">
        <path fill-rule="evenodd" clip-rule="evenodd" d="M22.2107 4.09223C22.4359 3.93246 22.748 3.98552 22.9078 4.21074L24.0654 5.84256C24.3294 5.73832 24.617 5.68104 24.918 5.68104C26.2004 5.68104 27.24 6.72063 27.24 8.00304C27.24 8.65187 26.9739 9.23854 26.5448 9.65986L27.7996 11.4285H44.628C44.8424 11.4285 45.033 11.5652 45.1016 11.7684L44.628 11.9285C45.1016 11.7684 45.1017 11.7686 45.1018 11.7689L45.1021 11.7698L45.103 11.7725L45.106 11.7815L45.1165 11.8136C45.1254 11.8413 45.138 11.8812 45.1536 11.9327C45.1849 12.0355 45.2283 12.1844 45.2782 12.3727C45.3779 12.7492 45.5041 13.2848 45.6115 13.927C45.8256 15.2063 45.9694 16.9326 45.6656 18.6735C45.361 20.4193 44.6008 22.205 42.9875 23.5497C41.4335 24.8448 39.1447 25.6837 35.8545 25.7432V42.9255C35.8545 42.9433 35.8536 42.9608 35.8518 42.978H39.414C39.6901 42.978 39.914 43.2019 39.914 43.478C39.914 43.7542 39.6901 43.978 39.414 43.978H31.2945C31.0183 43.978 30.7945 43.7542 30.7945 43.478C30.7945 43.2019 31.0183 42.978 31.2945 42.978H34.8572C34.8554 42.9608 34.8545 42.9433 34.8545 42.9255V25.7432C31.5642 25.6838 29.2753 24.8449 27.7213 23.5497C26.108 22.205 25.3479 20.4193 25.0433 18.6735C24.7396 16.9326 24.8834 15.2063 25.0975 13.927C25.2049 13.2848 25.3311 12.7492 25.4308 12.3727C25.4807 12.1844 25.5241 12.0355 25.5554 11.9327C25.571 11.8812 25.5836 11.8413 25.5925 11.8136C25.597 11.7998 25.6005 11.7891 25.603 11.7815L25.606 11.7725L25.6069 11.7698L25.6072 11.7689C25.6073 11.7686 25.6074 11.7684 26.081 11.9285L25.6074 11.7684C25.676 11.5652 25.8666 11.4285 26.081 11.4285H26.5735L25.6959 10.1915C25.4527 10.278 25.1909 10.325 24.918 10.325C23.6356 10.325 22.596 9.28544 22.596 8.00304C22.596 7.38238 22.8395 6.81859 23.2362 6.40201L22.0922 4.78934C21.9324 4.56411 21.9855 4.25201 22.2107 4.09223ZM27.283 12.4285H26.4522C26.4354 12.4882 26.417 12.5551 26.3975 12.6289C26.3042 12.9807 26.1852 13.4856 26.0838 14.092C25.9836 14.6906 25.9016 15.3823 25.877 16.1196C26.8231 16.3721 27.9309 16.5645 29.5605 16.5645C29.7866 16.5645 30.0026 16.5608 30.2096 16.5538L27.283 12.4285ZM31.3771 16.4712L28.5091 12.4285H44.2568C44.2736 12.4882 44.292 12.5551 44.3115 12.6289C44.4048 12.9807 44.5238 13.4856 44.6252 14.092C44.705 14.569 44.7733 15.1052 44.8102 15.6765C43.5342 15.2689 42.1611 14.867 39.7565 14.867C37.2341 14.867 35.8518 15.3089 34.5068 15.7396L34.5031 15.7408C33.5782 16.0369 32.6714 16.3273 31.3771 16.4712ZM35.4765 24.7465C35.4559 24.7465 35.4355 24.7478 35.4155 24.7502C35.3955 24.7478 35.3751 24.7465 35.3545 24.7465C35.3337 24.7465 35.3133 24.7478 35.2932 24.7502C35.2732 24.7478 35.2527 24.7465 35.232 24.7465C31.8982 24.7465 29.7449 23.9345 28.3616 22.7815C26.9789 21.6291 26.3047 20.0853 26.0284 18.5016C25.9497 18.0504 25.9037 17.598 25.8829 17.1536C26.8465 17.3918 27.9805 17.5645 29.5605 17.5645C32.0839 17.5645 33.4666 17.1227 34.8117 16.692L34.8161 16.6906C36.1203 16.273 37.3881 15.867 39.7565 15.867C42.1298 15.867 43.3933 16.2723 44.7074 16.6937L44.7077 16.6938L44.8385 16.7357C44.831 17.3125 44.7841 17.9081 44.6805 18.5016C44.4042 20.0853 43.7299 21.6291 42.3472 22.7815C40.9639 23.9345 38.8104 24.7465 35.4765 24.7465ZM23.596 8.00304C23.596 7.27292 24.1879 6.68104 24.918 6.68104C25.6481 6.68104 26.24 7.27292 26.24 8.00304C26.24 8.73316 25.6481 9.32504 24.918 9.32504C24.1879 9.32504 23.596 8.73316 23.596 8.00304Z" fill="currentColor"/>
        <path fill-rule="evenodd" clip-rule="evenodd" d="M2.54093 15C2.28003 15 2.06298 15.2006 2.04248 15.4607L2.54093 15.5C2.04248 15.4607 2.04247 15.4608 2.04246 15.4609L2.04243 15.4613L2.04235 15.4624L2.04208 15.4659L2.04114 15.4786C2.04034 15.4895 2.03923 15.5052 2.03787 15.5255C2.03516 15.566 2.03148 15.6249 2.02748 15.6998C2.01948 15.8495 2.01017 16.0637 2.0047 16.3246C1.99378 16.8454 1.99804 17.5572 2.0597 18.316C2.12111 19.0717 2.24076 19.8918 2.46758 20.6222C2.6908 21.341 3.03855 22.0415 3.60352 22.4785L3.60359 22.4786C4.08467 22.8505 4.53079 23.0945 4.93569 23.2921C5.08476 23.3649 5.22026 23.4279 5.34739 23.4871L5.3474 23.4871L5.34743 23.4871C5.58118 23.5959 5.7866 23.6914 5.99593 23.8099C6.56739 24.1334 7.08761 24.5896 7.5929 25.8384C7.67131 26.0323 7.74678 26.2353 7.82671 26.4502L7.82671 26.4503L7.84472 26.4987C7.93039 26.7289 8.02104 26.9711 8.12078 27.2131C8.31988 27.6961 8.56344 28.1993 8.90519 28.653C9.50672 29.4515 10.3772 30.0483 11.7179 30.2108V43H8.65443C8.37829 43 8.15443 43.2239 8.15443 43.5C8.15443 43.7761 8.37829 44 8.65443 44H15.7404C16.0166 44 16.2404 43.7761 16.2404 43.5C16.2404 43.2239 16.0166 43 15.7404 43H12.7179V30.2367C14.2101 30.1242 15.155 29.5029 15.7952 28.653C16.1369 28.1993 16.3805 27.6961 16.5796 27.2131C16.6793 26.9711 16.77 26.7289 16.8556 26.4987L16.8737 26.4502C16.9536 26.2353 17.029 26.0324 17.1074 25.8385C17.6127 24.5896 18.1329 24.1336 18.7044 23.8101C18.9136 23.6917 19.1189 23.5962 19.3525 23.4875C19.4797 23.4283 19.6154 23.3652 19.7647 23.2923C20.1696 23.0947 20.6158 22.8506 21.0968 22.4785C21.6618 22.0415 22.0096 21.341 22.2328 20.6222C22.4596 19.8918 22.5793 19.0717 22.6407 18.316C22.7023 17.5572 22.7066 16.8454 22.6957 16.3246C22.6902 16.0637 22.6809 15.8495 22.6729 15.6998C22.6689 15.6249 22.6652 15.566 22.6625 15.5255C22.6611 15.5052 22.66 15.4895 22.6592 15.4786L22.6583 15.4659L22.658 15.4624L22.6579 15.4613L22.6579 15.4609C22.6579 15.4608 22.6579 15.4607 22.1594 15.5L22.6579 15.4607C22.6374 15.2006 22.4203 15 22.1594 15H2.54093ZM3.00448 16.3456C3.00716 16.2176 3.01081 16.1016 3.01475 16L3.47838 18.1965C3.32983 18.166 3.18613 18.1339 3.04608 18.1006C2.99784 17.4357 2.99468 16.8127 3.00448 16.3456ZM3.16189 19.1518C3.22468 19.5621 3.30953 19.9615 3.42259 20.3256C3.62274 20.9701 3.89077 21.4364 4.21527 21.6874L3.70215 19.2566C3.51513 19.224 3.33559 19.1889 3.16189 19.1518ZM3.70219 19.2566L4.21534 21.6875C4.62374 22.0033 5.00478 22.2131 5.37429 22.3934C5.48559 22.4478 5.60256 22.5023 5.72175 22.5579L5.72177 22.5579C5.9787 22.6777 6.24588 22.8023 6.48856 22.9397C7.27396 23.3843 7.93773 24.0244 8.51994 25.4635L8.51997 25.4636C8.60393 25.6712 8.68418 25.887 8.76295 26.0989L8.76296 26.0989L8.78196 26.15C8.86784 26.3808 8.95299 26.608 9.04531 26.832C9.2303 27.2807 9.4358 27.6953 9.70393 28.0513C10.1994 28.709 10.9484 29.2233 12.3502 29.2536C13.7519 29.2233 14.501 28.709 14.9964 28.0513C15.2646 27.6953 15.4701 27.2807 15.6551 26.832C15.7474 26.608 15.8325 26.3808 15.9184 26.15L15.9374 26.0989C16.0162 25.887 16.0964 25.6712 16.1804 25.4636L16.1804 25.4635C16.7626 24.0244 17.4264 23.3844 18.2118 22.9399C18.4543 22.8026 18.7214 22.6781 18.9782 22.5583L18.9782 22.5583C19.0975 22.5027 19.2146 22.4481 19.3261 22.3937C19.6956 22.2133 20.0766 22.0034 20.485 21.6875C20.8096 21.4365 21.0776 20.9702 21.2778 20.3256C21.4268 19.8456 21.5269 19.3041 21.5919 18.7573C21.5588 18.7478 21.5258 18.7384 21.4927 18.729C20.2065 18.3614 18.9648 18.0065 16.6364 18.0065C14.3114 18.0065 13.0657 18.3622 11.7882 18.727L11.7838 18.7283C10.4679 19.1041 9.11892 19.4885 6.65544 19.4885C5.44673 19.4885 4.5055 19.3963 3.70219 19.2566ZM21.6764 17.7413C21.7032 17.2135 21.7039 16.7274 21.6959 16.3456C21.6932 16.2176 21.6896 16.1016 21.6856 16H3.01475L3.4784 18.1965C4.31303 18.3677 5.3009 18.4885 6.65544 18.4885C8.98164 18.4885 10.2278 18.1327 11.5054 17.7678L11.5092 17.7667C12.8251 17.391 14.1737 17.0065 16.6364 17.0065C19.0497 17.0065 20.3975 17.376 21.6764 17.7413Z" fill="currentColor"/>
    </symbol>

    <symbol id="icon-bar-wine" viewBox="0 0 48 48">
        <path fill-rule="evenodd" clip-rule="evenodd" d="M25.5839 4C25.3741 4 25.1867 4.13089 25.1145 4.32778L25.5839 4.5C25.1145 4.32778 25.1144 4.328 25.1143 4.32829L25.1139 4.32922L25.1128 4.33231L25.1088 4.34337L25.0941 4.38464C25.0813 4.42054 25.0629 4.47301 25.0398 4.54097C24.9934 4.67686 24.9277 4.87474 24.8493 5.12577C24.6926 5.62764 24.485 6.343 24.2797 7.201C23.8702 8.91269 23.4653 11.2116 23.5024 13.5235C23.5393 15.8278 24.0164 18.2086 25.434 20.0216C26.7943 21.7614 28.9621 22.905 32.2209 23.0212V43H27.7029C27.4267 43 27.2029 43.2239 27.2029 43.5C27.2029 43.7761 27.4267 44 27.7029 44H37.7394C38.0155 44 38.2394 43.7761 38.2394 43.5C38.2394 43.2239 38.0155 43 37.7394 43H33.2209V23.0248C36.5426 22.9314 38.7396 21.7815 40.1068 20.0202C41.5148 18.2063 41.9783 15.8247 42.0021 13.5207C42.0261 11.2088 41.6081 8.90996 41.1889 7.19839C40.9788 6.34044 40.7671 5.62513 40.6076 5.1233C40.5278 4.87229 40.461 4.67443 40.4138 4.53856C40.3902 4.47062 40.3715 4.41815 40.3586 4.38227L40.3436 4.34101L40.3396 4.32996L40.3384 4.32687L40.3381 4.32595C40.338 4.32566 40.3379 4.32543 39.8694 4.5L40.3379 4.32543C40.265 4.12976 40.0782 4 39.8694 4H25.5839ZM25.8039 5.42377C25.8561 5.25645 25.9023 5.11423 25.9403 5H39.5148C39.5537 5.11465 39.601 5.25772 39.6546 5.42624C39.8085 5.91048 40.0137 6.60384 40.2176 7.4363C40.4932 8.56145 40.7641 9.93177 40.9044 11.378C40.0853 11.7086 39.1364 11.965 37.7059 11.965C35.7133 11.965 34.654 11.4693 33.5373 10.9467L33.536 10.9461C32.3753 10.403 31.1566 9.83301 28.9439 9.83301C26.9147 9.83301 25.7154 10.3136 24.6467 10.8077C24.7895 9.57206 25.0185 8.41047 25.2522 7.43369C25.4514 6.60128 25.6527 5.90797 25.8039 5.42377ZM24.5421 11.9603C24.509 12.472 24.4939 12.9901 24.5022 13.5075C24.5376 15.711 24.9959 17.8379 26.2218 19.4057C27.4289 20.9495 29.4439 22.031 32.7779 22.031C36.1119 22.031 38.1195 20.9495 39.3168 19.4071C40.5331 17.8402 40.9794 15.714 41.0022 13.5103C41.006 13.1465 40.9982 12.7823 40.9807 12.4203C40.1255 12.7343 39.1168 12.965 37.7059 12.965C35.4922 12.965 34.273 12.3951 33.1122 11.8519L33.1101 11.8509C31.9936 11.3284 30.9349 10.833 28.9439 10.833C26.9511 10.833 25.8992 11.3254 24.7725 11.8528L24.7725 11.8528C24.6962 11.8885 24.6195 11.9244 24.5421 11.9603Z" fill="currentColor"/>
        <path fill-rule="evenodd" clip-rule="evenodd" d="M6.2355 4C5.99943 4 5.79553 4.16511 5.74643 4.39601C5.50275 5.54211 5.31742 7.55659 5.19247 9.55657C5.06689 11.5666 5 13.6032 5 14.8135C5 18.7299 5.69791 22.3007 6.84633 24.9112C7.42023 26.2157 8.11648 27.3027 8.91484 28.0705C9.58201 28.7122 10.3373 29.1453 11.1575 29.272V43.0405H7.29849C7.02235 43.0405 6.79849 43.2644 6.79849 43.5405C6.79849 43.8166 7.02235 44.0405 7.29849 44.0405H16.0165C16.2926 44.0405 16.5165 43.8166 16.5165 43.5405C16.5165 43.2644 16.2926 43.0405 16.0165 43.0405H12.1575V29.2722C12.9781 29.1457 13.7337 28.7125 14.4011 28.0707C15.1995 27.3029 15.8958 26.216 16.4697 24.9115C17.6181 22.3012 18.316 18.7304 18.316 14.8135V14.8134C18.3157 13.6031 18.2486 11.5666 18.1229 9.55654C17.9978 7.55656 17.8125 5.54215 17.5691 4.39612C17.52 4.16516 17.3161 4 17.08 4H6.2355ZM13.708 27.3499C13.0364 27.9957 12.3454 28.3096 11.6609 28.3105L11.658 28.3105C10.9726 28.3105 10.2806 27.9966 9.60803 27.3498C8.93302 26.7006 8.30226 25.7373 7.76167 24.5085C6.68109 22.0523 6 18.6246 6 14.8135C6 13.7037 6.05785 11.8641 6.16775 9.99468L12.134 10.0461L17.316 14.8136C17.316 18.6252 16.6349 22.0528 15.5543 24.5088C15.0137 25.7376 14.383 26.7008 13.708 27.3499ZM11.0368 9.03663L17.0902 9.08884C16.9822 7.50241 16.8387 6.00061 16.6663 5H6.64909C6.48002 5.98085 6.33872 7.44339 6.23152 8.99519L11.0367 9.03663L6.64909 5L11.0368 9.03663ZM12.1341 10.0461L17.1532 10.0894C17.2596 11.926 17.3158 13.7224 17.316 14.8135L12.1341 10.0461ZM15.4055 13.47C15.4055 13.1939 15.1816 12.97 14.9055 12.97C14.6294 12.97 14.4055 13.1939 14.4055 13.47C14.4055 16.1803 14.0869 18.5814 13.6595 20.4515C13.227 22.3437 12.6962 23.6348 12.3072 24.1693C12.1447 24.3925 12.194 24.7053 12.4173 24.8678C12.6405 25.0303 12.9533 24.981 13.1158 24.7577C13.6293 24.0522 14.1955 22.5948 14.6344 20.6743C15.0783 18.7319 15.4055 16.2562 15.4055 13.47Z" fill="currentColor"/>
    </symbol>

    <symbol id="icon-bar-beer" viewBox="0 0 48 48">
        <path fill-rule="evenodd" clip-rule="evenodd" d="M5.40399 7.6415C5.40399 7.01161 5.91459 6.5 6.54549 6.5H10.3455C10.9761 6.5 11.487 7.01086 11.487 7.6415V8.172C11.487 8.56694 11.2863 8.91538 10.981 9.12037V11.765C10.981 12.6971 11.0472 14.2289 11.2938 15.7974C11.5428 17.3809 11.966 18.9345 12.6423 19.959C13.3807 21.0777 13.83 21.8492 14.0849 22.6007C14.3442 23.3655 14.3915 24.0776 14.3915 25.05V42.696C14.3915 43.6408 13.6255 44.406 12.6815 44.406H4.21C3.26522 44.406 2.5 43.64 2.5 42.696V39.5V26.5V25.05C2.5 24.0939 2.56347 23.3887 2.84276 22.6229C3.11558 21.8747 3.58482 21.0964 4.33397 19.9726C5.01736 18.9476 5.38853 17.441 5.58088 15.906C5.77142 14.3853 5.779 12.9066 5.779 11.9765V9.01804C5.54863 8.80922 5.40399 8.50757 5.40399 8.172V7.6415ZM3.5 40V42.696C3.5 43.088 3.81778 43.406 4.21 43.406H12.6815C13.0735 43.406 13.3915 43.0882 13.3915 42.696V40H3.5ZM13.3915 39H3.5V27H13.3915V39ZM3.5 26H13.3915V25.05C13.3915 24.1053 13.3431 23.527 13.1379 22.9219C12.9282 22.3035 12.5443 21.6258 11.8077 20.5099C11.009 19.3 10.5602 17.5698 10.3059 15.9527C10.1174 14.7534 10.0305 13.5792 9.99765 12.656H6.7762C6.76715 13.5711 6.7293 14.7838 6.57312 16.0303C6.37597 17.6037 5.98264 19.3024 5.16603 20.5274C4.41518 21.6536 4.00942 22.3425 3.78224 22.9655C3.56153 23.5707 3.5 24.1405 3.5 25.05V26ZM6.54549 7.5C6.46739 7.5 6.40399 7.56339 6.40399 7.6415V8.172C6.40399 8.25036 6.46713 8.3135 6.54549 8.3135H10.3455C10.4236 8.3135 10.487 8.25011 10.487 8.172V7.6415C10.487 7.56314 10.4238 7.5 10.3455 7.5H6.54549ZM6.779 11.656H9.981V9.32349H6.779V11.656Z" fill="currentColor"/>
        <path fill-rule="evenodd" clip-rule="evenodd" d="M26.6956 5.09657C25.9975 4.66201 25.209 4.48433 24.3937 4.72893C23.2364 5.07611 22.5323 5.6292 22.1079 6.2885C21.6777 6.95695 21.5 7.78891 21.5 8.75002C21.5 9.02616 21.2761 9.25002 21 9.25002C19.9317 9.25002 19.058 9.47236 18.4613 9.93186C17.8877 10.3736 17.5 11.089 17.5 12.25C17.5 12.9373 17.6924 13.5513 17.924 14.0761C18.0399 14.3387 18.1635 14.5747 18.2774 14.7886C18.2879 14.8083 18.2984 14.8281 18.309 14.8479C18.3147 14.8586 18.3205 14.8693 18.3262 14.8801C18.7951 14.636 19.3405 14.5 19.9464 14.5H22.5556C22.8317 14.5 23.0556 14.7239 23.0556 15V19.1429C23.0556 20.5233 23.9514 21.3572 24.7546 21.3572H25.912C26.8012 21.3572 27.6111 20.4173 27.6111 19.1429V15C27.6111 14.7239 27.835 14.5 28.1111 14.5H37.3571C38.075 14.5 38.7075 14.6854 39.2353 14.9986C39.5294 14.6683 39.8503 14.1949 40.1089 13.6552C40.4541 12.9345 40.6499 12.1754 40.5775 11.5583C40.4084 10.1167 39.6797 9.26804 38.791 8.84417C37.8784 8.40896 36.7544 8.40309 35.8083 8.75445C35.661 8.80914 35.4966 8.79144 35.3644 8.70666C35.2321 8.62187 35.1474 8.47986 35.1356 8.32321C35.0215 6.80468 33.729 5.70893 32.5356 5.49195C31.9818 5.39126 31.3473 5.5545 30.7199 5.88237C30.0989 6.20687 29.5413 6.66379 29.1689 7.05775C29.0575 7.17557 28.896 7.23208 28.7355 7.20936C28.5749 7.18664 28.4354 7.08751 28.3611 6.94342C27.9914 6.22625 27.4009 5.53566 26.6956 5.09657ZM38.885 15.9645C38.8894 15.9702 38.8939 15.9757 38.8986 15.9812C38.9498 16.0414 39.0122 16.0864 39.08 16.1158C39.6634 16.6163 39.9954 17.3646 39.9954 18.1429V38.9333C39.9954 41.8735 37.6321 43.5 35.1713 43.5H21.9769C20.6833 43.5 19.5719 43.1193 18.7881 42.3871C18.0104 41.6604 17.5 40.536 17.5 38.9333V18.1429C17.5 17.391 17.7425 16.7283 18.1574 16.2603C18.5666 15.7988 19.1656 15.5 19.9464 15.5H22.0556V19.1429C22.0556 20.9054 23.243 22.3572 24.7546 22.3572H25.912C27.5692 22.3572 28.6111 20.7257 28.6111 19.1429V15.5H37.3571C37.9544 15.5 38.4711 15.6749 38.885 15.9645ZM40.0136 15.6278C40.3751 15.2141 40.731 14.6711 41.0107 14.0872C41.3954 13.2843 41.6742 12.3247 41.5707 11.4418C41.3627 9.66902 40.4294 8.51771 39.2214 7.94157C38.2271 7.46734 37.0753 7.39544 36.0392 7.64173C35.6323 5.92097 34.1125 4.76228 32.7145 4.50808C31.8528 4.35143 30.9826 4.61676 30.2567 4.99608C29.7561 5.2577 29.2965 5.58767 28.9159 5.91826C28.4853 5.27173 27.9069 4.67269 27.2241 4.24763C26.3375 3.69574 25.2534 3.42699 24.1063 3.77111C22.7636 4.17393 21.8427 4.85297 21.2671 5.74725C20.7836 6.49829 20.5683 7.36303 20.5142 8.26429C19.5127 8.32458 18.5759 8.58141 17.8512 9.1396C16.9873 9.80497 16.5 10.8396 16.5 12.25C16.5 13.1252 16.7452 13.8818 17.0091 14.4798C17.1409 14.7785 17.2794 15.042 17.3947 15.2586C17.4024 15.273 17.41 15.2872 17.4174 15.3011C17.4535 15.3688 17.4857 15.4294 17.5142 15.4839C17.4784 15.5207 17.4433 15.5584 17.4092 15.5969C16.8109 16.2717 16.5 17.1804 16.5 18.1429V38.9333C16.5 40.7592 17.0891 42.1682 18.1054 43.1177C19.1157 44.0617 20.4926 44.5 21.9769 44.5H35.1713C38.0346 44.5 40.9954 42.5646 40.9954 38.9333V36.4939C41.021 36.4979 41.0473 36.5 41.0741 36.5C43.1394 36.5 44.5292 35.5048 45.3739 34.0144C46.1992 32.5584 46.5 30.6462 46.5 28.75C46.5 26.8912 46.3641 24.9535 45.6201 23.4721C45.2417 22.7186 44.7017 22.0733 43.9401 21.6205C43.1805 21.1688 42.2342 20.9286 41.0741 20.9286C41.0473 20.9286 41.021 20.9307 40.9954 20.9348V18.1429C40.9954 17.2174 40.6439 16.307 40.0136 15.6278ZM40.9954 21.9224V35.5062C41.021 35.5021 41.0473 35.5 41.0741 35.5C42.7472 35.5 43.8204 34.7274 44.504 33.5213C45.207 32.2809 45.5 30.5681 45.5 28.75C45.5 26.8946 45.3546 25.1716 44.7265 23.9208C44.4189 23.3083 44.0001 22.8196 43.429 22.48C42.856 22.1393 42.0956 21.9286 41.0741 21.9286C41.0473 21.9286 41.021 21.9265 40.9954 21.9224ZM32.625 24.0715C32.9011 24.0715 33.125 24.2953 33.125 24.5715V38.4286C33.125 38.7048 32.9011 38.9286 32.625 38.9286C32.3489 38.9286 32.125 38.7048 32.125 38.4286V24.5715C32.125 24.2953 32.3489 24.0715 32.625 24.0715ZM24.8704 29.6429C25.1465 29.6429 25.3704 29.8667 25.3704 30.1429V38.4286C25.3704 38.7047 25.1465 38.9286 24.8704 38.9286C24.5942 38.9286 24.3704 38.7047 24.3704 38.4286V30.1429C24.3704 29.8667 24.5942 29.6429 24.8704 29.6429Z" fill="currentColor"/>
    </symbol>

    <symbol id="icon-bar-spirit" viewBox="0 0 48 48">
        <path fill-rule="evenodd" clip-rule="evenodd" d="M8.783 4C8.50686 4 8.283 4.22386 8.283 4.5V5.53463C7.63979 5.60255 7.1385 6.14679 7.1385 6.808V9.885C7.1385 10.5459 7.63995 11.0899 8.283 11.1579V18.1649C5.19235 19.3835 3 22.3897 3 25.9165V41.956C3 43.0447 3.88286 43.9275 4.9715 43.9275H17.704C18.7926 43.9275 19.6755 43.0447 19.6755 41.956V25.917C19.6755 22.3902 17.4831 19.384 14.3925 18.1654V11.1578C15.0353 11.0897 15.5365 10.5457 15.5365 9.885V6.808C15.5365 6.14696 15.0355 5.60284 14.3925 5.53469V4.5C14.3925 4.22386 14.1686 4 13.8925 4H8.783ZM9.283 15.1665V11.165H13.3925V15.1665H9.283ZM9.283 16.1665V18.513C9.283 18.7263 9.14773 18.9161 8.94613 18.9856C6.30207 19.8983 4.34157 22.2726 4.04032 25.1435H18.6351C18.3337 22.2728 16.3733 19.8987 13.7294 18.9861C13.5278 18.9166 13.3925 18.7268 13.3925 18.5135V16.1665H9.283ZM4 38.6525V26.1435H18.6755V38.6525H4ZM4 39.6525V41.956C4 42.4924 4.43514 42.9275 4.9715 42.9275H17.704C18.2404 42.9275 18.6755 42.4924 18.6755 41.956V39.6525H4ZM13.3925 5.5275V5H9.283V5.5275H13.3925ZM8.1385 6.808C8.1385 6.65314 8.26415 6.5275 8.419 6.5275H14.256C14.4109 6.5275 14.5365 6.65314 14.5365 6.808V9.885C14.5365 10.0391 14.4111 10.165 14.256 10.165H8.419C8.26394 10.165 8.1385 10.0391 8.1385 9.885V6.808Z" fill="currentColor"/>
        <path fill-rule="evenodd" clip-rule="evenodd" d="M26.3216 24.9956C25.604 24.9956 25.0337 25.5984 25.0735 26.3149L25.9866 42.7503C26.0234 43.4127 26.5712 43.9309 27.2346 43.9309H39.7654C40.4288 43.9309 40.9766 43.4127 41.0134 42.7503L41.9265 26.3149C41.9663 25.5984 41.396 24.9956 40.6784 24.9956H40.6696H26.3304H26.3216ZM26.885 40.8943L26.985 42.6948C26.9924 42.8273 27.1019 42.9309 27.2346 42.9309H39.7654C39.898 42.9309 40.0076 42.8273 40.015 42.6948L40.115 40.8943C40.0062 40.9252 39.8915 40.9417 39.7732 40.9417H27.2268C27.1085 40.9417 26.9938 40.9252 26.885 40.8943ZM40.6696 25.9956H26.3304C26.1858 25.9956 26.0713 26.1179 26.081 26.2622L26.6433 34.6981C27.7737 34.6201 28.6362 34.1883 29.6207 33.6955L29.7267 33.6424C29.9036 33.5539 30.0839 33.4645 30.2693 33.3765L30.9292 29.6405C31.0013 29.2326 31.3904 28.9603 31.7983 29.0324L39.3192 30.3608C39.7271 30.4329 39.9994 30.822 39.9273 31.2299L39.4767 33.7811C39.7655 33.8544 40.0699 33.9097 40.4072 33.9392L40.919 26.2622C40.9286 26.1179 40.8142 25.9956 40.6696 25.9956ZM38.5162 33.4696L38.8991 31.3021L31.8705 30.0606L31.3658 32.9176C32.1125 32.655 32.964 32.4687 33.9982 32.4687C35.8297 32.4687 36.9543 32.8656 37.9464 33.2497C38.002 33.2712 38.057 33.2926 38.1116 33.3138L38.112 33.314C38.2491 33.3673 38.3832 33.4195 38.5162 33.4696ZM31.1622 34.0703C31.9719 33.7248 32.8541 33.4687 33.9982 33.4687C35.6541 33.4687 36.6469 33.819 37.5854 34.1823C37.6453 34.2054 37.7052 34.2288 37.7652 34.2522C37.9541 34.3258 38.1442 34.3999 38.3393 34.471L37.6205 38.5406L30.5919 37.2991L31.1622 34.0703ZM30.0537 34.5971L29.5637 37.3713C29.4916 37.7792 29.7639 38.1683 30.1718 38.2403L37.6927 39.5688C38.1006 39.6409 38.4897 39.3686 38.5617 38.9607L39.3024 34.768C39.6208 34.8451 39.9629 34.9048 40.3407 34.937L40.0226 39.7083C40.0139 39.8397 39.9048 39.9417 39.7732 39.9417H27.2268C27.0952 39.9417 26.9861 39.8397 26.9774 39.7083L26.7098 35.6957C28.0481 35.603 29.0638 35.0936 30.0265 34.6107L30.0537 34.5971Z" fill="currentColor"/>
    </symbol>

</svg>
