<svg width="412" height="128" viewBox="0 0 412 128" fill="none" xmlns="http://www.w3.org/2000/svg">
<path d="M69.9312 41.9433H40V87.4325H47.7242V68.327H63.945V61.0488H47.7242V49.2216H69.9312V41.9433Z" fill="white"/>
<path d="M112.694 54.9403H106.45V87.4326H113.209V69.8867C113.209 68.1971 113.595 66.6592 114.367 65.2728C115.14 63.8432 116.148 62.7168 117.393 61.8936C118.68 61.0705 120.075 60.6589 121.577 60.6589C123.508 60.6589 125.031 61.1788 126.147 62.2186C127.262 63.2583 127.82 64.753 127.82 66.7025V68.3921H134.579V66.4425C134.579 64.0165 134.064 61.8936 133.034 60.0741C132.004 58.2112 130.588 56.7815 128.786 55.7851C127.026 54.7887 125.01 54.2904 122.735 54.2904C120.718 54.2904 118.83 54.7453 117.071 55.6551C115.354 56.5649 113.895 57.8429 112.694 59.4892V54.9403Z" fill="white"/>
<path d="M215.145 54.9212H221.904V87.4135H215.145V54.9212Z" fill="white"/>
<path d="M213.536 39H223.577L218.878 50.6972H218.235L213.536 39Z" fill="white"/>
<path fill-rule="evenodd" clip-rule="evenodd" d="M310.515 85.8538C312.961 87.3268 315.708 88.0633 318.754 88.0633C321.115 88.0633 323.26 87.6084 325.191 86.6986C327.165 85.7455 328.839 84.4025 330.212 82.6696V87.4135H336.456V41.2744H329.697V59.0802C328.324 57.5639 326.693 56.3942 324.805 55.571C322.96 54.7046 320.943 54.2713 318.754 54.2713C315.751 54.2713 313.004 55.0078 310.515 56.4808C308.069 57.9538 306.138 59.99 304.722 62.5894C303.349 65.1454 302.662 68.0048 302.662 71.1673C302.662 74.3299 303.349 77.2109 304.722 79.8103C306.138 82.3663 308.069 84.3808 310.515 85.8538ZM324.869 80.4601C323.325 81.3699 321.608 81.8248 319.72 81.8248C317.832 81.8248 316.115 81.3699 314.571 80.4601C313.026 79.507 311.803 78.229 310.902 76.626C310 74.9797 309.55 73.1602 309.55 71.1673C309.55 69.1745 310 67.3766 310.902 65.7736C311.803 64.1273 313.026 62.8493 314.571 61.9395C316.115 60.9864 317.832 60.5099 319.72 60.5099C321.608 60.5099 323.325 60.9864 324.869 61.9395C326.414 62.8493 327.616 64.1273 328.474 65.7736C329.375 67.3766 329.826 69.1745 329.826 71.1673C329.826 73.1602 329.375 74.9797 328.474 76.626C327.616 78.229 326.414 79.507 324.869 80.4601Z" fill="white"/>
<path d="M346.253 85.2689C349.342 87.2617 353.033 88.2582 357.324 88.2582C359.899 88.2582 362.302 87.8899 364.533 87.1534C366.765 86.4169 368.567 85.3122 369.94 83.8392C371.313 82.3229 372 80.46 372 78.2505C372 76.2144 371.421 74.5681 370.262 73.3117C369.103 72.012 367.58 71.0156 365.692 70.3224C363.847 69.5859 361.551 68.9577 358.805 68.4379C358.633 68.3945 358.483 68.3729 358.354 68.3729C358.225 68.3296 358.075 68.2862 357.903 68.2429L357.26 68.1129C357.088 68.0696 356.895 68.0263 356.68 67.983C354.835 67.6797 353.398 67.3981 352.368 67.1382C351.338 66.8349 350.501 66.4233 349.857 65.9035C349.257 65.3836 348.956 64.6904 348.956 63.824C348.956 62.4809 349.643 61.5062 351.016 60.8997C352.389 60.2931 353.955 59.9899 355.715 59.9899C357.903 59.9899 359.856 60.4664 361.572 61.4195C363.289 62.3293 364.383 63.694 364.855 65.5136H371.807C371.335 61.6578 369.661 58.7985 366.786 56.9356C363.911 55.0294 360.478 54.0763 356.487 54.0763C354.084 54.0763 351.788 54.4229 349.6 55.116C347.454 55.8092 345.673 56.9139 344.257 58.4303C342.884 59.9466 342.198 61.8744 342.198 64.2139C342.198 66.3367 342.798 68.0696 344 69.4126C345.244 70.7557 346.854 71.7954 348.827 72.5319C350.801 73.2251 353.247 73.8533 356.165 74.4165C356.466 74.4598 356.766 74.5248 357.067 74.6114C357.367 74.6547 357.646 74.6981 357.903 74.7414C359.663 75.0446 360.993 75.3262 361.894 75.5862C362.838 75.8461 363.568 76.2144 364.083 76.6909C364.641 77.1241 364.92 77.7523 364.92 78.5755C364.92 79.5719 364.512 80.3734 363.697 80.9799C362.924 81.5864 361.959 82.0196 360.8 82.2796C359.641 82.5395 358.483 82.6695 357.324 82.6695C354.835 82.6695 352.732 82.1279 351.016 81.0449C349.342 79.9185 348.27 78.3805 347.798 76.431H340.91C341.425 80.33 343.206 83.276 346.253 85.2689Z" fill="white"/>
<path d="M266.413 54.9213H272.657V59.4702C273.944 57.824 275.553 56.5459 277.484 55.6361C279.458 54.7264 281.625 54.2715 283.986 54.2715C286.732 54.2715 289.157 54.8996 291.259 56.156C293.405 57.3691 295.057 59.1236 296.216 61.4198C297.374 63.7159 297.954 66.3803 297.954 69.4129V87.4136H291.13V70.4526C291.13 67.3334 290.401 64.9073 288.942 63.1743C287.483 61.4414 285.466 60.575 282.891 60.575C281.046 60.575 279.373 61.0082 277.871 61.8747C276.412 62.7411 275.253 63.9325 274.395 65.4488C273.579 66.9218 273.172 68.5897 273.172 70.4526V87.4136H266.413V54.9213Z" fill="white"/>
<path fill-rule="evenodd" clip-rule="evenodd" d="M235.624 85.9189C238.285 87.3486 241.31 88.0634 244.7 88.0634C247.318 88.0634 249.721 87.6085 251.909 86.6988C254.141 85.7456 255.964 84.4893 257.38 82.9297C258.839 81.37 259.784 79.6371 260.213 77.7309H253.518C252.832 79.1172 251.695 80.222 250.107 81.0451C248.562 81.8682 246.867 82.2798 245.022 82.2798C243.048 82.2798 241.267 81.8899 239.679 81.1101C238.091 80.2869 236.804 79.2039 235.817 77.8609C234.83 76.5178 234.208 75.0232 233.95 73.3769H261.243C261.285 72.987 261.307 72.5971 261.307 72.2072C261.35 71.8173 261.371 71.3841 261.371 70.9075C261.371 67.7882 260.642 64.9722 259.183 62.4595C257.724 59.9035 255.707 57.9106 253.132 56.4809C250.6 55.008 247.768 54.2715 244.636 54.2715C241.46 54.2715 238.542 55.0296 235.881 56.5459C233.221 58.0189 231.118 60.0551 229.573 62.6545C228.029 65.2105 227.256 68.0915 227.256 71.2974C227.256 74.46 227.986 77.3193 229.445 79.8754C230.947 82.4314 233.006 84.446 235.624 85.9189ZM252.617 63.8242C253.561 64.9506 254.226 66.2936 254.613 67.8532H234.144C234.53 66.3369 235.216 64.9939 236.203 63.8242C237.233 62.6545 238.456 61.7664 239.872 61.1598C241.331 60.51 242.898 60.1851 244.571 60.1851C246.245 60.1851 247.768 60.51 249.141 61.1598C250.515 61.7664 251.673 62.6545 252.617 63.8242Z" fill="white"/>
<path d="M188.715 54.9213H182.472V87.4136H189.23V69.8678C189.23 68.1782 189.617 66.6402 190.389 65.2538C191.161 63.8242 192.17 62.6978 193.414 61.8747C194.702 61.0515 196.096 60.6399 197.598 60.6399C199.529 60.6399 201.053 61.1598 202.168 62.1996C203.284 63.2393 203.842 64.734 203.842 66.6835V68.3731H210.601V66.4236C210.601 63.9975 210.086 61.8747 209.056 60.0551C208.026 58.1922 206.61 56.7625 204.807 55.7661C203.048 54.7697 201.031 54.2715 198.757 54.2715C196.74 54.2715 194.852 54.7264 193.092 55.6361C191.376 56.5459 189.917 57.824 188.715 59.4702V54.9213Z" fill="white"/>
<path d="M152.341 41.9243H182.272V49.2026H160.065V61.0298H176.286V68.308H160.065V87.4135H152.341V41.9243Z" fill="white"/>
<path fill-rule="evenodd" clip-rule="evenodd" d="M84.3997 88.0824C81.1384 88.0824 78.1775 87.3459 75.5169 85.8729C72.8993 84.3999 70.8181 82.3854 69.2732 79.8294C67.7713 77.23 67.0203 74.349 67.0203 71.1864C67.0203 68.0238 67.7713 65.1645 69.2732 62.6085C70.8181 60.0091 72.9207 57.9729 75.5813 56.4999C78.2418 55.0269 81.1813 54.2904 84.3997 54.2904C87.6611 54.2904 90.6005 55.0269 93.2182 56.4999C95.8787 57.9729 97.96 60.0091 99.4619 62.6085C101.007 65.1645 101.779 68.0238 101.779 71.1864C101.779 74.3057 101.007 77.165 99.4619 79.7644C97.96 82.3204 95.8787 84.3566 93.2182 85.8729C90.5576 87.3459 87.6181 88.0824 84.3997 88.0824ZM84.3997 81.8439C86.4166 81.8439 88.2189 81.389 89.8067 80.4792C91.3944 79.5694 92.6389 78.3131 93.54 76.7101C94.4412 75.0638 94.8917 73.2226 94.8917 71.1864C94.8917 69.1502 94.4412 67.3307 93.54 65.7277C92.6389 64.0814 91.3944 62.8034 89.8067 61.8936C88.2189 60.9838 86.4166 60.529 84.3997 60.529C82.3829 60.529 80.5591 60.9838 78.9284 61.8936C77.3407 62.8034 76.0962 64.0598 75.1951 65.6627C74.3368 67.2657 73.9077 69.1069 73.9077 71.1864C73.9077 73.2226 74.3583 75.0638 75.2595 76.7101C76.1606 78.3131 77.4051 79.5694 78.9928 80.4792C80.5806 81.389 82.3829 81.8439 84.3997 81.8439Z" fill="white"/>
</svg>
