<svg width="96" height="96" viewBox="0 0 96 96" fill="none" xmlns="http://www.w3.org/2000/svg">
<path fill-rule="evenodd" clip-rule="evenodd" d="M9.80798 15.283C9.80798 14.0232 10.8292 13 12.091 13H19.691C20.9523 13 21.974 14.0217 21.974 15.283V16.344C21.974 17.1339 21.5725 17.8308 20.962 18.2407V23.53C20.962 25.3941 21.0944 28.4579 21.5876 31.5948C22.0856 34.7618 22.9319 37.869 24.2846 39.9181C25.7614 42.1553 26.6601 43.6983 27.1698 45.2015C27.6884 46.7309 27.783 48.1553 27.783 50.1V85.392C27.783 87.2815 26.251 88.812 24.363 88.812H7.42C5.53045 88.812 4 87.28 4 85.392V79V53V50.1C4 48.1879 4.12695 46.7775 4.68552 45.2458C5.23116 43.7495 6.16964 42.1928 7.66795 39.9453C9.03471 37.8952 9.77706 34.8821 10.1618 31.8119C10.5428 28.7706 10.558 25.8132 10.558 23.953V18.0361C10.0973 17.6184 9.80798 17.0151 9.80798 16.344V15.283ZM6 80V85.392C6 86.1759 6.63555 86.812 7.42 86.812H24.363C25.147 86.812 25.783 86.1764 25.783 85.392V80H6ZM25.783 78H6V54H25.783V78ZM6 52H25.783V50.1C25.783 48.2107 25.6861 47.054 25.2757 45.8437C24.8564 44.6071 24.0886 43.2516 22.6154 41.0199C21.0181 38.6 20.1204 35.1397 19.6119 31.9054C19.2347 29.5068 19.061 27.1585 18.9953 25.312H12.5524C12.5343 27.1423 12.4586 29.5677 12.1462 32.0606C11.7519 35.2074 10.9653 38.6048 9.33205 41.0547C7.83036 43.3072 7.01884 44.685 6.56448 45.931C6.12305 47.1415 6 48.281 6 50.1V52ZM12.091 15C11.9348 15 11.808 15.1268 11.808 15.283V16.344C11.808 16.5007 11.9343 16.627 12.091 16.627H19.691C19.8472 16.627 19.974 16.5002 19.974 16.344V15.283C19.974 15.1263 19.8477 15 19.691 15H12.091ZM12.558 23.312H18.962V18.647H12.558V23.312Z" fill="black"/>
<path d="M49.7407 60.2857V76.8572M65.25 49.1429V76.8572M36.2133 31.125C35.7503 29.9821 34.625 28.625 34.625 25.5C34.625 20.3571 37.2407 17.7143 41.1759 16.5714C42.1018 11.7143 44.6019 8.5 49 8.5C52.2407 8.5 55.9907 10.2857 57.6111 13.4286C59.2314 11.7143 61.5 10.1429 64 10.5C67.5 11 69 13.4286 69.2685 16.5714C73.875 15.5 80.1481 16.5714 80.125 24.25C80.1126 28.3713 78.25 29.875 76.5588 31.3143M80.1481 72C87.625 72 92 64.8572 92 57.4286C92 50 88.875 42.8572 80.1481 42.8572M72.7143 30C76.5588 30 78.9908 33.0667 78.9908 36.2857V77.8667C78.9908 84.4381 73.6667 88 68.3426 88H43.9537C38.3982 88 34 84.7238 34 77.8667V36.2857C34 32.8572 36.2133 30 39.8929 30H45.1111V38.2858C45.1111 41.4286 47.1944 43.7143 49.5093 43.7143H51.8241C54.3704 43.7143 56.2222 41.1429 56.2222 38.2858V30C62.7037 30 66.2328 30 72.7143 30Z" stroke="black" stroke-width="2" stroke-linecap="round" stroke-linejoin="round"/>
</svg>
