<svg width="96" height="96" viewBox="0 0 96 96" fill="none" xmlns="http://www.w3.org/2000/svg">
<path fill-rule="evenodd" clip-rule="evenodd" d="M53.1677 8C52.7483 8 52.3734 8.26177 52.2289 8.65556L53.1677 9C52.2289 8.65556 52.2288 8.656 52.2285 8.65659L52.2279 8.65845L52.2256 8.66462L52.2176 8.68674L52.1881 8.76929C52.1627 8.84107 52.1259 8.94603 52.0795 9.08193C51.9867 9.35372 51.8553 9.74947 51.6986 10.2515C51.3852 11.2553 50.9699 12.686 50.5594 14.402C49.7403 17.8254 48.9306 22.4233 49.0047 27.047C49.0787 31.6556 50.0328 36.4173 52.8681 40.0433C55.5887 43.5227 59.9242 45.8099 66.4417 46.0424V86H57.4057C56.8534 86 56.4057 86.4477 56.4057 87C56.4057 87.5523 56.8534 88 57.4057 88H77.4787C78.031 88 78.4787 87.5523 78.4787 87C78.4787 86.4477 78.031 86 77.4787 86H68.4417V46.0497C75.0853 45.8629 79.4793 43.563 82.2135 40.0405C85.0296 36.4126 85.9566 31.6495 86.0043 27.0414C86.0522 22.4177 85.2163 17.8199 84.3778 14.3968C83.9576 12.6809 83.5342 11.2503 83.2151 10.2466C83.0555 9.74458 82.9219 9.34887 82.8276 9.07713C82.7804 8.94124 82.7431 8.83631 82.7172 8.76454L82.6873 8.68202L82.6792 8.65992L82.6769 8.65375L82.6762 8.65189C82.676 8.65131 82.6758 8.65087 81.7387 9L82.6758 8.65087C82.53 8.25952 82.1563 8 81.7387 8H53.1677ZM53.6077 10.8475C53.7122 10.5129 53.8046 10.2285 53.8806 10H81.0297C81.1073 10.2293 81.202 10.5154 81.3091 10.8525C81.617 11.821 82.0275 13.2077 82.4353 14.8726C82.9864 17.1229 83.5282 19.8635 83.8088 22.7561C82.1706 23.4173 80.2729 23.93 77.4117 23.93C73.4266 23.93 71.3081 22.9386 69.0747 21.8935L69.0721 21.8923C66.7506 20.8059 64.3132 19.666 59.8877 19.666C55.8295 19.666 53.4309 20.6271 51.2934 21.6155C51.5789 19.1441 52.0371 16.8209 52.5045 14.8674C52.9028 13.2026 53.3054 11.8159 53.6077 10.8475ZM51.0843 23.9207C51.018 24.9439 50.9879 25.9802 51.0045 27.015C51.0752 31.4219 51.9918 35.6757 54.4436 38.8113C56.8579 41.899 60.8878 44.062 67.5557 44.062C74.2238 44.062 78.2391 41.899 80.6336 38.8141C83.0661 35.6804 83.9588 31.428 84.0044 27.0206C84.0119 26.293 83.9964 25.5646 83.9614 24.8405C82.2511 25.4686 80.2337 25.93 77.4117 25.93C72.9844 25.93 70.546 24.7902 68.2244 23.7038L68.2203 23.7018C65.9873 22.6569 63.8698 21.666 59.8877 21.666C55.9022 21.666 53.7983 22.6508 51.5451 23.7056L51.545 23.7056C51.3923 23.7771 51.239 23.8489 51.0843 23.9207Z" fill="black"/>
<path fill-rule="evenodd" clip-rule="evenodd" d="M12.471 8C11.9989 8 11.5911 8.33022 11.4929 8.79203C11.0055 11.0842 10.6348 15.1132 10.3849 19.1131C10.1338 23.1332 10 27.2063 10 29.627C10 37.4598 11.3958 44.6015 13.6927 49.8223C14.8405 52.4313 16.233 54.6054 17.8297 56.1411C19.164 57.4244 20.6746 58.2907 22.315 58.5441V86.081H14.597C14.0447 86.081 13.597 86.5287 13.597 87.081C13.597 87.6333 14.0447 88.081 14.597 88.081H32.033C32.5853 88.081 33.033 87.6333 33.033 87.081C33.033 86.5287 32.5853 86.081 32.033 86.081H24.315V58.5444C25.9561 58.2914 27.4674 57.4251 28.8023 56.1414C30.399 54.6059 31.7915 52.432 32.9393 49.8231C35.2362 44.6025 36.632 37.4608 36.632 29.627V29.6268C36.6315 27.2062 36.4972 23.1331 36.2458 19.1131C35.9956 15.1131 35.625 11.0843 35.1382 8.79224C35.0401 8.33033 34.6322 8 34.16 8H12.471ZM27.416 54.6998C26.0728 55.9915 24.6909 56.6192 23.3218 56.621L23.316 56.621C21.9451 56.621 20.5612 55.9932 19.2161 54.6995C17.866 53.4012 16.6045 51.4745 15.5233 49.0169C13.3622 44.1045 12 37.2492 12 29.627C12 27.4073 12.1157 23.7281 12.3355 19.9894L24.268 20.0923L34.632 29.6272C34.632 37.2503 33.2698 44.1056 31.1087 49.0177C30.0275 51.4751 28.766 53.4016 27.416 54.6998ZM22.0735 18.0733L34.1805 18.1777C33.9644 15.0048 33.6773 12.0012 33.3327 10H13.2982C12.96 11.9617 12.6774 14.8868 12.463 17.9904L22.0734 18.0733L13.2982 10L22.0735 18.0733ZM24.2681 20.0923L34.3064 20.1788C34.5193 23.852 34.6315 27.4448 34.632 29.627L24.2681 20.0923ZM30.811 26.94C30.811 26.3877 30.3633 25.94 29.811 25.94C29.2587 25.94 28.811 26.3877 28.811 26.94C28.811 32.3607 28.1739 37.1627 27.319 40.9031C26.4541 44.6875 25.3924 47.2697 24.6145 48.3385C24.2895 48.7851 24.388 49.4105 24.8345 49.7355C25.2811 50.0605 25.9065 49.962 26.2315 49.5155C27.2586 48.1043 28.3909 45.1895 29.2687 41.3487C30.1566 37.4638 30.811 32.5123 30.811 26.94Z" fill="black"/>
</svg>
