<svg width="96" height="96" viewBox="0 0 96 96" fill="none" xmlns="http://www.w3.org/2000/svg">
<path fill-rule="evenodd" clip-rule="evenodd" d="M22.566 8C22.0137 8 21.566 8.44772 21.566 9V11.0693C20.2796 11.2051 19.277 12.2936 19.277 13.616V19.77C19.277 21.0918 20.2799 22.1799 21.566 22.3157V36.3297C15.3847 38.7671 11 44.7793 11 51.833V83.912C11 86.0893 12.7657 87.855 14.943 87.855H40.408C42.5853 87.855 44.351 86.0893 44.351 83.912V51.834C44.351 44.7803 39.9663 38.7681 33.785 36.3307V22.3156C35.0706 22.1793 36.073 21.0915 36.073 19.77V13.616C36.073 12.2939 35.071 11.2057 33.785 11.0694V9C33.785 8.44772 33.3373 8 32.785 8H22.566ZM23.566 30.333V22.33H31.785V30.333H23.566ZM23.566 32.333V37.026C23.566 37.4525 23.2955 37.8321 22.8923 37.9713C17.6041 39.7965 13.6831 44.5452 13.0806 50.287H42.2703C41.6674 44.5457 37.7466 39.7974 32.4587 37.9723C32.0555 37.8331 31.785 37.4536 31.785 37.027V32.333H23.566ZM13 77.305V52.287H42.351V77.305H13ZM13 79.305V83.912C13 84.9847 13.8703 85.855 14.943 85.855H40.408C41.4807 85.855 42.351 84.9847 42.351 83.912V79.305H13ZM31.785 11.055V10H23.566V11.055H31.785ZM21.277 13.616C21.277 13.3063 21.5283 13.055 21.838 13.055H33.512C33.8217 13.055 34.073 13.3063 34.073 13.616V19.77C34.073 20.0783 33.8221 20.33 33.512 20.33H21.838C21.5279 20.33 21.277 20.0783 21.277 19.77V13.616Z" fill="black"/>
<path fill-rule="evenodd" clip-rule="evenodd" d="M53.6431 49.9911C52.2079 49.9911 51.0674 51.1968 51.147 52.6298L52.9731 85.5004C53.0467 86.8252 54.1424 87.8617 55.4693 87.8617H80.5307C81.8575 87.8617 82.9533 86.8252 83.0269 85.5004L84.853 52.6298C84.9326 51.1968 83.7921 49.9911 82.3569 49.9911H82.3392H53.6608H53.6431ZM54.77 81.7885L54.97 85.3895C54.9848 85.6544 55.2039 85.8617 55.4693 85.8617H80.5307C80.7961 85.8617 81.0152 85.6544 81.0299 85.3895L81.23 81.7885C81.0124 81.8503 80.783 81.8833 80.5464 81.8833H55.4536C55.2169 81.8833 54.9876 81.8503 54.77 81.7885ZM82.3392 51.9911H53.6608C53.3716 51.9911 53.1427 52.2358 53.1619 52.5244L54.2867 69.396C56.5474 69.2401 58.2724 68.3765 60.2413 67.3908L60.4534 67.2847C60.8073 67.1077 61.1678 66.9289 61.5386 66.7529L62.8585 59.2808C63.0026 58.465 63.7807 57.9205 64.5965 58.0646L79.6384 60.7216C80.4542 60.8657 80.9987 61.6438 80.8546 62.4596L79.9533 67.5621C80.531 67.7086 81.1397 67.8193 81.8145 67.8784L82.8381 52.5243C82.8573 52.2358 82.6284 51.9911 82.3392 51.9911ZM78.0324 66.9391L78.7982 62.6041L64.741 60.1211L63.7317 65.8351C65.2249 65.3099 66.9279 64.9372 68.9964 64.9372C72.6594 64.9372 74.9085 65.7312 76.8927 66.4992C77.0043 66.5424 77.1146 66.5854 77.2241 66.6279C77.4982 66.7346 77.7663 66.8389 78.0324 66.9391ZM63.3245 68.1404C64.9438 67.4494 66.7081 66.9372 68.9964 66.9372C72.3082 66.9372 74.2938 67.6378 76.1707 68.3644C76.2901 68.4106 76.4095 68.4571 76.529 68.5037L76.5303 68.5042C76.9082 68.6515 77.2883 68.7997 77.6787 68.9418L76.241 77.081L62.1838 74.598L63.3245 68.1404ZM61.1074 69.194L60.1273 74.7425C59.9832 75.5583 60.5278 76.3364 61.3436 76.4805L76.3854 79.1375C77.2012 79.2816 77.9794 78.7371 78.1235 77.9213L79.6047 69.5358C80.2416 69.69 80.9258 69.8095 81.6814 69.8738L81.0452 79.4166C81.0277 79.6792 80.8096 79.8833 80.5464 79.8833H55.4536C55.1904 79.8833 54.9722 79.6792 54.9547 79.4166L54.4197 71.3912C57.0963 71.2059 59.1276 70.187 61.053 69.2213L61.1074 69.194Z" fill="black"/>
</svg>
