<svg width="96" height="96" viewBox="0 0 96 96" fill="none" xmlns="http://www.w3.org/2000/svg">
<path fill-rule="evenodd" clip-rule="evenodd" d="M44.4214 8.18447C44.8718 7.86492 45.496 7.97103 45.8156 8.42148L48.1308 11.6851C48.6587 11.4766 49.234 11.3621 49.836 11.3621C52.4008 11.3621 54.48 13.4413 54.48 16.0061C54.48 17.3037 53.9477 18.4771 53.0897 19.3197L55.5992 22.8571H89.256C89.6848 22.8571 90.0659 23.1305 90.2033 23.5367L89.256 23.8571C90.2033 23.5367 90.2034 23.5372 90.2037 23.5379L90.2043 23.5396L90.206 23.545L90.212 23.563L90.2329 23.6273C90.2507 23.6826 90.276 23.7625 90.3072 23.8653C90.3698 24.071 90.4565 24.3688 90.5563 24.7455C90.7558 25.4984 91.0082 26.5696 91.223 27.8539C91.6511 30.4127 91.9387 33.8652 91.3312 37.347C90.722 40.8386 89.2017 44.41 85.9749 47.0994C82.867 49.6897 78.2893 51.3674 71.7089 51.4863V85.8511C71.7089 85.8865 71.7071 85.9216 71.7035 85.9561H78.8279C79.3802 85.9561 79.8279 86.4038 79.8279 86.9561C79.8279 87.5084 79.3802 87.9561 78.8279 87.9561H62.5889C62.0367 87.9561 61.5889 87.5084 61.5889 86.9561C61.5889 86.4038 62.0367 85.9561 62.5889 85.9561H69.7144C69.7108 85.9216 69.7089 85.8865 69.7089 85.8511V51.4863C63.1283 51.3675 58.5505 49.6898 55.4426 47.0994C52.216 44.41 50.6958 40.8386 50.0866 37.3469C49.4792 33.8652 49.7668 30.4126 50.1949 27.8539C50.4098 26.5696 50.6621 25.4984 50.8616 24.7455C50.9614 24.3688 51.0482 24.071 51.1107 23.8653C51.142 23.7625 51.1672 23.6826 51.185 23.6273C51.1939 23.5996 51.2009 23.5781 51.2059 23.563L51.2119 23.545L51.2137 23.5396L51.2143 23.5379C51.2145 23.5372 51.2147 23.5367 52.162 23.8571L51.2147 23.5367C51.3521 23.1305 51.7331 22.8571 52.162 22.8571H53.147L51.3918 20.383C50.9054 20.556 50.3817 20.6501 49.836 20.6501C47.2712 20.6501 45.192 18.5709 45.192 16.0061C45.192 14.7648 45.679 13.6372 46.4724 12.804L44.1843 9.57868C43.8648 9.12823 43.9709 8.50402 44.4214 8.18447ZM54.5659 24.8571H52.9044C52.8707 24.9764 52.8339 25.1103 52.7949 25.2577C52.6084 25.9614 52.3704 26.9712 52.1675 28.184C51.9672 29.3811 51.8031 30.7646 51.7539 32.2393C53.6461 32.7443 55.8618 33.1291 59.121 33.1291C59.5731 33.1291 60.0052 33.1217 60.4192 33.1076L54.5659 24.8571ZM62.7541 32.9423L57.0181 24.8571H88.5136C88.5472 24.9764 88.584 25.1103 88.623 25.2577C88.8095 25.9614 89.0475 26.9712 89.2504 28.184C89.4101 29.138 89.5466 30.2104 89.6204 31.353C87.0683 30.5378 84.3222 29.7341 79.513 29.7341C74.4681 29.7341 71.7036 30.6179 69.0135 31.4792L69.0062 31.4816C67.1564 32.0739 65.3427 32.6546 62.7541 32.9423ZM70.953 49.4931C70.9117 49.4931 70.871 49.4956 70.831 49.5004C70.791 49.4956 70.7503 49.4931 70.7089 49.4931C70.6675 49.4931 70.6266 49.4956 70.5864 49.5005C70.5463 49.4956 70.5054 49.4931 70.464 49.4931C63.7964 49.4931 59.4897 47.8689 56.7231 45.563C53.9578 43.2582 52.6094 40.1706 52.0568 37.0032C51.8994 36.1008 51.8075 35.196 51.7658 34.3073C53.6929 34.7835 55.9609 35.1291 59.121 35.1291C64.1677 35.1291 66.9332 34.2453 69.6234 33.384L69.6323 33.3811C72.2405 32.546 74.7761 31.7341 79.513 31.7341C84.2596 31.7341 86.7865 32.5445 89.4149 33.3874L89.4154 33.3876L89.6769 33.4714C89.6619 34.6249 89.5681 35.8161 89.361 37.0032C88.8083 40.1705 87.4598 43.2582 84.6944 45.563C81.9277 47.8689 77.6208 49.4931 70.953 49.4931ZM47.192 16.0061C47.192 14.5458 48.3757 13.3621 49.836 13.3621C51.2962 13.3621 52.48 14.5458 52.48 16.0061C52.48 17.4663 51.2962 18.6501 49.836 18.6501C48.3757 18.6501 47.192 17.4663 47.192 16.0061Z" fill="black"/>
<path fill-rule="evenodd" clip-rule="evenodd" d="M5.08186 30C4.56006 30 4.12597 30.4012 4.08496 30.9214L5.08186 31C4.08496 30.9214 4.08494 30.9216 4.08492 30.9219L4.08486 30.9226L4.0847 30.9247L4.08415 30.9318L4.08227 30.9571C4.08068 30.9789 4.07845 31.0103 4.07574 31.0509C4.07032 31.132 4.06296 31.2497 4.05496 31.3995C4.03896 31.699 4.02034 32.1274 4.0094 32.6492C3.98755 33.6908 3.99608 35.1144 4.1194 36.632C4.24221 38.1434 4.48152 39.7836 4.93517 41.2444C5.3816 42.6819 6.07711 44.083 7.20705 44.957L7.20719 44.9571C8.16934 45.701 9.06158 46.189 9.87137 46.5843C10.1695 46.7298 10.4405 46.8559 10.6948 46.9742L10.6948 46.9742L10.6949 46.9742C11.1624 47.1917 11.5732 47.3829 11.9919 47.6199C13.1348 48.2669 14.1752 49.1791 15.1858 51.6769C15.3426 52.0647 15.4936 52.4706 15.6534 52.9005L15.6534 52.9005L15.6894 52.9973C15.8608 53.4579 16.0421 53.9422 16.2416 54.4261C16.6398 55.3921 17.1269 56.3986 17.8104 57.3059C19.0134 58.903 20.7545 60.0965 23.4359 60.4216V86H17.3089C16.7566 86 16.3089 86.4477 16.3089 87C16.3089 87.5523 16.7566 88 17.3089 88H31.4809C32.0332 88 32.4809 87.5523 32.4809 87C32.4809 86.4477 32.0332 86 31.4809 86H25.4359V60.4734C28.4202 60.2484 30.3099 59.0057 31.5904 57.3059C32.2739 56.3986 32.761 55.3921 33.1592 54.4261C33.3586 53.9422 33.5399 53.4579 33.7113 52.9973L33.7473 52.9004C33.9072 52.4706 34.0581 52.0648 34.2149 51.677C35.2254 49.1792 36.2659 48.2672 37.4088 47.6203C37.8273 47.3834 38.2378 47.1924 38.705 46.9751C38.9595 46.8566 39.2308 46.7304 39.5294 46.5847C40.3392 46.1894 41.2315 45.7012 42.1937 44.957C43.3236 44.083 44.0191 42.6819 44.4656 41.2444C44.9192 39.7836 45.1585 38.1434 45.2813 36.632C45.4046 35.1144 45.4132 33.6908 45.3913 32.6492C45.3804 32.1274 45.3618 31.699 45.3458 31.3995C45.3378 31.2497 45.3304 31.132 45.325 31.0509C45.3223 31.0103 45.32 30.9789 45.3185 30.9571L45.3166 30.9318L45.316 30.9247L45.3159 30.9226L45.3158 30.9219C45.3158 30.9216 45.3158 30.9214 44.3189 31L45.3158 30.9214C45.2748 30.4012 44.8407 30 44.3189 30H5.08186ZM6.00896 32.6912C6.01433 32.4351 6.02162 32.2031 6.02949 32L6.95676 36.3929C6.65965 36.3319 6.37226 36.2678 6.09216 36.2012C5.99568 34.8715 5.98936 33.6255 6.00896 32.6912ZM6.32378 38.3037C6.44935 39.1243 6.61905 39.9231 6.84518 40.6512C7.24547 41.9402 7.78154 42.8728 8.43054 43.3749L7.4043 38.5131C7.03027 38.4481 6.67118 38.3779 6.32378 38.3037ZM7.40437 38.5131L8.43068 43.375C9.24747 44.0065 10.0096 44.4262 10.7486 44.7869C10.9712 44.8955 11.2051 45.0046 11.4435 45.1158L11.4435 45.1158C11.9574 45.3554 12.4918 45.6046 12.9771 45.8794C14.5479 46.7686 15.8755 48.0489 17.0399 50.927L17.0399 50.9271C17.2079 51.3423 17.3684 51.774 17.5259 52.1977L17.5259 52.1978L17.5639 52.3C17.7357 52.7616 17.906 53.216 18.0906 53.6639C18.4606 54.5615 18.8716 55.3907 19.4079 56.1026C20.3987 57.418 21.8968 58.4465 24.7004 58.5072C27.5039 58.4465 29.002 57.418 29.9929 56.1026C30.5291 55.3907 30.9401 54.5615 31.3101 53.6639C31.4947 53.216 31.6651 52.7616 31.8368 52.3L31.8748 52.1978C32.0323 51.7741 32.1929 51.3424 32.3608 50.9271L32.3609 50.927C33.5253 48.0488 34.8529 46.7688 36.4237 45.8797C36.9087 45.6052 37.4427 45.3562 37.9563 45.1167L37.9564 45.1166C38.195 45.0053 38.4293 44.8961 38.6521 44.7873C39.3911 44.4266 40.1532 44.0068 40.9701 43.375C41.6191 42.873 42.1552 41.9403 42.5555 40.6512C42.8537 39.6911 43.0537 38.6083 43.1839 37.5146C43.1177 37.4957 43.0515 37.4768 42.9855 37.4579C40.4131 36.7228 37.9295 36.013 33.2729 36.013C28.6227 36.013 26.1313 36.7245 23.5764 37.454L23.5676 37.4566C20.9358 38.2081 18.2378 38.977 13.3109 38.977C10.8935 38.977 9.01099 38.7925 7.40437 38.5131ZM43.3528 35.4827C43.4065 34.4269 43.4078 33.4549 43.3918 32.6912C43.3864 32.4351 43.3791 32.2031 43.3712 32H6.02949L6.95681 36.3929C8.62607 36.7355 10.6018 36.977 13.3109 36.977C17.9633 36.977 20.4555 36.2653 23.0108 35.5356L23.0184 35.5334C25.6502 34.7819 28.3474 34.013 33.2729 34.013C38.0994 34.013 40.7951 34.752 43.3528 35.4827Z" fill="black"/>
</svg>
